<?xml version="1.0" standalone="no"?>
<!DOCTYPE svg PUBLIC "-//W3C//DTD SVG 1.1//EN" "http://www.w3.org/Graphics/SVG/1.1/DTD/svg11.dtd" >
<svg xmlns="http://www.w3.org/2000/svg">
<metadata></metadata>
<defs>
<font id="simple_printregular" horiz-adv-x="533" >
<font-face units-per-em="2048" ascent="1638" descent="-410" />
<missing-glyph horiz-adv-x="361" />
<glyph horiz-adv-x="0" />
<glyph unicode="&#xd;" horiz-adv-x="1699" />
<glyph unicode=" "  horiz-adv-x="361" />
<glyph unicode="&#x09;" horiz-adv-x="361" />
<glyph unicode="&#xa0;" horiz-adv-x="361" />
<glyph unicode="!" horiz-adv-x="206" d="M53 42q0 -26 15 -43t36 -17q22 0 37.5 17t15.5 43t-15.5 43.5t-37.5 17.5t-36.5 -17.5t-14.5 -43.5zM77 206v795q0 24 22 24q24 0 24 -24v-795q0 -23 -24 -23q-23 0 -22 23z" />
<glyph unicode="&#x22;" horiz-adv-x="274" d="M70 872v130q0 23 22 23q24 0 24 -23v-130q0 -23 -24 -22q-23 0 -22 22zM167 872v130q0 23 22 23q24 0 24 -23v-130q0 -23 -24 -22q-23 0 -22 22z" />
<glyph unicode="#" horiz-adv-x="553" d="M87 166l45 102h-16q-25 0 -25 25q0 23 25 22h36l52 122l-63 1q-25 0 -23 24q-1 24 23 23h83l67 153q8 22 31 12q21 -8 12 -30l-59 -135h74l67 153q9 22 30 12q23 -9 14 -30l-59 -135h30q24 -1 24 -24q0 -25 -24 -25h-51l-52 -121h78q24 0 23 -24q0 -24 -23 -24h-98 l-51 -120q-10 -23 -32 -11q-22 8 -12 30l44 102h-75l-51 -121q-9 -23 -32 -11q-22 8 -12 30zM203 315h75l51 121l-73 1z" />
<glyph unicode="$" horiz-adv-x="536" d="M60 209q-9 20 11 31q19 10 29 -10q23 -40 63 -59q31 -17 76 -21v215q-70 23 -125 50q-60 31 -48 104q10 53 70 85q45 23 103 28v156q0 23 22 23q24 0 24 -23v-154q60 -2 107 -26q49 -27 80 -78q12 -20 -8 -30q-20 -11 -31 8q-23 39 -62 59q-36 18 -86 21v-190 q71 -23 132 -54q69 -36 54 -124q-10 -55 -71 -86q-50 -26 -115 -30v-104q0 -23 -24 -23q-23 0 -22 23v104q-55 4 -98 26q-51 26 -81 79zM111 512q-8 -44 41 -68q39 -17 87 -32v174q-47 -5 -82 -22q-41 -24 -46 -52zM285 150q54 4 95 24q41 23 46 54q10 57 -47 84 q-44 22 -94 38v-200z" />
<glyph unicode="%" horiz-adv-x="552" d="M18 34l472 978q10 20 31 10q20 -11 11 -31l-473 -977q-9 -20 -30 -10q-20 9 -11 30zM25 845q0 35 10 65.5t27.5 53.5t40.5 36.5t50 13.5t49.5 -13.5t40 -36.5t27.5 -53.5t10 -65.5t-10 -65.5t-27.5 -54t-40.5 -36.5t-49 -13q-27 0 -50 13t-40.5 36.5t-27.5 54t-10 65.5z M68 844q0 -26 6.5 -49t17.5 -40t26.5 -26.5t34.5 -9.5q18 0 33.5 9.5t27 26.5t18.5 40t7 49t-7 48.5t-18.5 40t-27 27.5t-33.5 10t-34 -10t-27 -27.5t-17.5 -40t-6.5 -48.5zM287 170q0 35 10 65.5t27.5 53.5t40.5 36.5t50 13.5t49.5 -13.5t40 -36.5t27.5 -53.5t10 -65.5 t-10 -65.5t-27.5 -53.5t-40.5 -36.5t-49 -13.5q-27 0 -50 13.5t-40.5 36.5t-27.5 53.5t-10 65.5zM330 169q0 -26 6.5 -49t18 -40t26.5 -26.5t34 -9.5q18 0 33.5 9.5t27 26.5t18.5 40t7 49t-7 49t-18.5 40t-27 27t-33.5 10t-33.5 -10t-27 -27t-18 -40t-6.5 -49z" />
<glyph unicode="&#x26;" horiz-adv-x="643" d="M68 117.5q-6 39.5 13.5 88.5t72.5 97q92 73 96 77q-59 95 -41 183t116 83.5t96.5 -95t-54 -136t-57.5 -50.5l104 -176q82 77 89 83q18 16 31 -2q15 -18 -3 -33q-5 -4 -94 -87l43 -64q20 -29 27 -32q6 -3 17 10t33 56q10 20 31 9q19 -12 9 -32q-35 -68 -61 -83t-51 -1 q-16 8 -41 44l-41 62l-73 -63q-52 -41 -100.5 -50t-84.5 6q-32 11 -51.5 38.5t-25.5 67zM112 125q3 -28 15 -45t34 -25q62 -25 142 39l76 65q-6 10 -107 180l-90 -73q-42 -37 -57.5 -75t-12.5 -66zM247.5 543q-9.5 -56 40.5 -136q3 2 49.5 41t43 96t-63.5 56t-69.5 -57z" />
<glyph unicode="'" horiz-adv-x="200" d="M70 872v130q0 23 22 23q24 0 24 -23v-130q0 -23 -24 -22q-23 0 -22 22z" />
<glyph unicode="(" horiz-adv-x="188" d="M-14 482q-1 304 144 596q9 20 30 11q20 -9 10 -31q-140 -284 -139 -576q1 -285 139 -574q10 -19 -10 -31q-20 -8 -31 11q-139 295 -143 594z" />
<glyph unicode=")" horiz-adv-x="188" d="M-5 -90q140 284 139 575q-1 285 -139 575q-10 19 10 31q20 8 31 -12q139 -295 143 -594q1 -304 -144 -596q-9 -20 -30 -10q-20 9 -10 31z" />
<glyph unicode="*" horiz-adv-x="377" d="M42 883q0 23 24 22h80l-40 70q-12 22 11 33q19 11 30 -10l40 -68l41 70q12 18 34 7q20 -11 8 -31l-42 -71h83q23 -1 23 -25t-23 -23h-83l42 -72q11 -19 -10 -31q-20 -12 -31 8l-42 73l-42 -71q-12 -22 -32 -8q-19 11 -9 31l41 70l-79 1q-25 0 -24 25z" />
<glyph unicode="+" horiz-adv-x="649" d="M109 368q0 23 23 22h169v171q1 23 26 23q24 0 22 -23l-1 -171h173q23 -1 23 -25t-23 -23h-173v-170q0 -25 -24 -24q-23 0 -23 24v170l-169 1q-25 0 -23 25z" />
<glyph unicode="," horiz-adv-x="181" d="M17 -127q62 91 83 146q18 51 -8 50t-33 16q-10 24 27 45.5t54 -4.5q34 -44 4 -122q-22 -61 -88 -159q-13 -18 -32 -5q-18 13 -7 33z" />
<glyph unicode="-" horiz-adv-x="649" d="M109 368q0 23 23 22h389q23 -1 23 -25t-23 -23l-389 1q-25 0 -23 25z" />
<glyph unicode="." horiz-adv-x="206" d="M53 42q0 26 15 43.5t36 17.5q22 0 37.5 -17.5t15.5 -43.5t-15.5 -43t-37.5 -17t-36.5 17t-14.5 43z" />
<glyph unicode="/" horiz-adv-x="552" d="M18 34l472 978q10 20 31 10q20 -11 11 -31l-473 -977q-9 -20 -30 -10q-20 9 -11 30z" />
<glyph unicode="0" horiz-adv-x="689" d="M51 502q0 213 83 364q84 159 210 159t211 -159q83 -152 83 -364q0 -215 -83 -366q-85 -159 -211 -159t-210 159q-83 151 -83 366zM97 502q0 -203 77 -344q72 -135 170 -135t171 135q77 139 77 344q0 202 -77 343q-73 134 -171 134t-170 -134q-77 -143 -77 -343z" />
<glyph unicode="1" horiz-adv-x="148" d="M51 0v1002q0 23 23 23t23 -23v-1002q0 -23 -23 -23t-23 23z" />
<glyph unicode="2" horiz-adv-x="652" d="M51 0q0 9 7 17l409 422q43 45 65 106q24 62 24 133q0 125 -70 215q-67 86 -160 86q-94 0 -160 -86q-70 -90 -70 -215q0 -24 -22 -24q-23 0 -23 24q0 142 79 244q80 103 196 103t196 -103q79 -103 79 -244q0 -80 -26 -150q-29 -72 -74 -119v-1l-374 -385h452q23 0 22 -23 q0 -23 -22 -23h-505q-23 0 -23 23z" />
<glyph unicode="3" horiz-adv-x="652" d="M51 251q0 23 23 22q23 0 22 -22q0 -94 68 -162q68 -67 162 -66q95 0 162 66q68 68 68 162t-68 161t-162 66q-23 0 -23 24q0 23 23 22q95 0 162 67q68 67 68 161t-68 160q-68 67 -162 67t-162 -67t-68 -160q0 -23 -22 -23q-23 0 -23 23q0 114 80 193q81 80 195 80t195 -80 q80 -80 80 -193q0 -115 -80 -194q-37 -36 -85 -56q50 -25 85 -59q80 -80 80 -192q0 -114 -80 -194q-81 -80 -195 -80q-115 0 -195 80t-80 194z" />
<glyph unicode="4" horiz-adv-x="649" d="M55 485l22 -2l-22 2l36 519q2 23 25 21q22 -2 20 -25l-35 -493h221v495q0 23 23 23q22 0 22 -23v-495h208q23 0 23 -24q0 -23 -23 -22h-208v-461q0 -23 -22 -23q-24 0 -23 23v461h-245h-1q-25 1 -21 24z" />
<glyph unicode="5" horiz-adv-x="652" d="M51 325q0 23 23 22q22 1 22 -22q0 -127 70 -216q67 -86 160 -86t160 86q70 89 70 216q0 128 -73 219q-63 84 -157 84q-60 0 -113 -40q-53 -41 -83 -108l-2 -2v-1q-1 0 -2 -1v-2q-9 -22 -30 -11q-15 6 -13 23l41 518q0 23 22 22h389q23 0 22 -24q0 -23 -22 -22h-368 l-31 -402q20 25 49 46q65 49 141 49q116 0 194 -101q40 -52 60.5 -118.5t20.5 -128.5q0 -142 -79 -243q-80 -104 -196 -105q-117 0 -196 105q-79 99 -79 243z" />
<glyph unicode="6" horiz-adv-x="652" d="M51 325q0 103 44 189l244 499q9 19 31 9q18 -10 10 -30l-174 -354q56 35 120 35q117 0 196 -105q79 -102 79 -243q0 -142 -79 -243q-80 -104 -196 -105q-117 0 -196 105q-79 99 -79 243zM96 325q0 -127 70 -216q67 -86 160 -86t160 86q70 89 70 216q0 126 -70 216 q-67 87 -160 87t-160 -87q-70 -90 -70 -216z" />
<glyph unicode="7" horiz-adv-x="590" d="M51 1002q0 23 24 23h441q24 0 24 -23q0 -5 -1 -7l-264 -1000q-7 -23 -28 -17q-23 7 -17 28l257 973h-412q-24 0 -24 23z" />
<glyph unicode="8" horiz-adv-x="652" d="M51 251q0 113 80 192q34 34 85 59q-49 20 -85 56q-80 79 -80 194q0 114 80 193q81 80 195 80t195 -80q80 -80 80 -193q0 -115 -80 -194q-37 -36 -85 -56q50 -25 85 -59q80 -80 80 -192q0 -114 -80 -194q-81 -80 -195 -80q-115 0 -195 80t-80 194zM96 251q0 -94 68 -162 q68 -67 162 -66q95 0 162 66q68 68 68 162t-68 161q-77 71 -164.5 68.5t-159.5 -68.5q-68 -67 -68 -161zM96 752q0 -94 68 -161q67 -67 162 -67t162 67q68 67 68 161t-68 160q-68 67 -162 67t-162 -67t-68 -160z" />
<glyph unicode="9" horiz-adv-x="652" d="M51 678q0 142 79 244q80 103 196 103t196 -103q79 -103 79 -244q0 -105 -44 -191l-244 -496q-9 -19 -29 -10q-23 9 -12 29l174 354q-57 -34 -120 -34q-116 0 -196 103q-79 100 -79 245zM96 678q0 -127 70 -216q66 -86 160 -86t160 86q70 89 70 216q0 125 -70 215 q-67 86 -160 86q-94 0 -160 -86q-70 -90 -70 -215z" />
<glyph unicode=":" horiz-adv-x="206" d="M53 42q0 26 15 43.5t36 17.5q22 0 37.5 -17.5t15.5 -43.5t-15.5 -43t-37.5 -17t-36.5 17t-14.5 43zM53 458q0 26 15 43.5t36 17.5q22 0 37.5 -18t15.5 -43q0 -26 -15.5 -43.5t-37.5 -17.5t-36.5 17.5t-14.5 43.5z" />
<glyph unicode=";" horiz-adv-x="181" d="M17 -127q62 91 83 146q18 51 -8 50t-33 16q-10 24 27 45.5t54 -4.5q34 -44 4 -122q-22 -61 -88 -159q-13 -18 -32 -5q-18 13 -7 33zM53 458q0 26 15 43.5t36 17.5q22 0 37.5 -18t15.5 -43q0 -26 -15.5 -43.5t-37.5 -17.5t-36.5 17.5t-14.5 43.5z" />
<glyph unicode="&#x3c;" horiz-adv-x="330" d="M51 243l197 254q14 18 33 5q15 -15 3 -31l-176 -228l176 -228q12 -17 -3 -32q-19 -13 -33 4z" />
<glyph unicode="=" horiz-adv-x="552" d="M105 462q0 24 23 23h292q23 -1 23 -24q1 -25 -24 -25l-291 2q-24 0 -23 24zM106 293q-1 23 24 22h290q23 0 23 -24q1 -24 -24 -24l-289 1q-25 0 -24 25z" />
<glyph unicode="&#x3e;" horiz-adv-x="330" d="M63 13l177 229l-177 227q-12 17 4 33q18 13 32 -4l197 -256l-197 -254q-14 -18 -32 -5q-15 15 -4 30z" />
<glyph unicode="?" horiz-adv-x="494" d="M-104 821q36 99 103 152q67 52 162 52q109 0 186 -59q86 -65 91 -177.5t-37 -172t-95 -104.5q-52 -44 -94.5 -105t-33.5 -204q1 -24 -21 -24q-24 -2 -25 22q-10 160 38 228.5t106 117.5q46 40 83.5 91t31.5 166q-10 79 -72 125q-65 50 -158 50q-79 0 -134 -42 q-55 -44 -89 -132q-8 -23 -30 -12q-20 5 -12 28zM111 42q0 -26 14.5 -43t36.5 -17t37 17t15 43t-15.5 43.5t-36.5 17.5q-22 0 -36.5 -17.5t-14.5 -43.5z" />
<glyph unicode="@" horiz-adv-x="574" d="M-103 182q0 135 96 231q93 95 229 95h3.5h7.5h1h2q127 -5 219 -95q93 -92 93 -220v-5v-6q-1 -29 -8.5 -70.5t-25.5 -75.5q-32 -59 -87 -60q-84 0 -103 62q-49 -61 -130 -62q-82 0 -127 56q-43 55 -43 150q0 85 38 146.5t132 61.5q78 0 123 -53v44q0 22 23 21q24 0 24 -21 v-199v-68q-1 -55 14 -73.5t48 -18.5q28 0 47 35q15 28 21.5 64.5t7.5 61.5q1 2 1 10q0 106 -80 188q-81 77 -190 82h-1h-5.5h-4.5q-118 0 -198 -82q-81 -84 -81 -199t81 -196q81 -83 198 -83q36 0 77 11q39 12 72 32q18 13 31 -7q11 -19 -8 -31q-40 -26 -82 -38 q-45 -12 -90 -12q-138 0 -229 95q-96 93 -96 229zM69 182q0 -80 33 -122q31 -39 92 -38q60 0 90 38q34 41 33 122q0 80 -33 123q-32 39 -90 39q-69 0 -97 -47.5t-28 -114.5z" />
<glyph unicode="A" horiz-adv-x="808" d="M55 7l326 1002v1q4 10 15 14q5 1 9 1q13 0 20 -15l326 -1003q2 -5 2 -9q0 -13 -17 -18q-6 -2 -10 -2q-14 0 -19 16l-152 467h-304l-153 -467q-4 -16 -17 -16q-5 0 -11 2q-15 5 -15 21v6zM266 507h275l-139 421z" />
<glyph unicode="B" horiz-adv-x="592" d="M51 2v1000q0 23 23 23h2h169h1h1q139 0 217 -71q78 -74 78 -202q0 -131 -78 -203q-34 -31 -79 -47q46 -19 79 -49q78 -72 78 -202t-78 -204q-79 -70 -217 -70h-173q-4 0 -5 1q-17 5 -18 24zM97 23h150q122 0 185 59q63 56 64 169q0 110 -64 169q-63 58 -185 58h-150v-455 zM97 524h150q122 0 185 59q63 58 64 169q0 111 -64 169q-63 58 -185 58q-2 0 -2 1h-148v-456z" />
<glyph unicode="C" horiz-adv-x="700" d="M51 502q0 113 19 211.5t62 171.5q82 140 238 140q94 0 164 -54q68 -53 106 -156q3 -7 3 -12q0 -13 -15 -18q-23 -8 -30 14q-36 91 -92 136q-56 44 -136 44q-130 0 -199 -117q-39 -67 -56.5 -160.5t-17.5 -199.5q0 -110 17.5 -202.5t56.5 -158.5q68 -118 197 -118h2 q79 0 136 45q57 44 92 136q7 20 30 13q15 -7 15 -19q0 -5 -3 -11q-40 -104 -106 -155q-70 -54 -164 -55q-156 0 -238 141q-43 71 -62 170t-19 214z" />
<glyph unicode="D" horiz-adv-x="635" d="M51 0v1002q0 23 23 23h192q156 0 238 -140q43 -73 62 -172t19 -211q0 -115 -19 -214.5t-62 -169.5q-82 -140 -238 -141h-192q-23 0 -23 23zM97 23h169q129 0 199 118q39 66 56.5 158.5t17.5 202.5q0 106 -17.5 200t-56.5 160q-70 117 -199 117h-169v-956z" />
<glyph unicode="E" horiz-adv-x="562" d="M51 0v483v519q0 23 23 23h414q23 0 23 -23q0 -24 -23 -23h-391v-472h391q23 0 23 -24q0 -23 -23 -22h-391v-438h391q23 0 23 -23t-23 -23h-414q-23 0 -23 23z" />
<glyph unicode="F" horiz-adv-x="562" d="M51 0v483v519q0 23 23 23h414q23 0 23 -23q0 -24 -23 -23h-391v-472h391q23 0 23 -24q0 -23 -23 -22h-391v-461q0 -23 -23 -23t-23 23z" />
<glyph unicode="G" horiz-adv-x="781" d="M51 502q0 113 19 211.5t62 171.5q82 140 238 140q94 0 164 -54q68 -53 106 -156q9 -23 -12 -30q-23 -8 -30 14q-36 91 -92 136q-56 44 -136 44q-130 0 -199 -117q-39 -67 -56.5 -160.5t-17.5 -199.5q0 -110 17.5 -202.5t56.5 -158.5q68 -118 197 -118h2q79 0 136 45 q56 44 90 132v261h-127q-22 0 -22 22q0 24 22 24h149h91q22 0 21 -24q1 -22 -21 -22h-67v-461q0 -23 -24 -23q-23 0 -22 23v99q-28 -42 -62 -67q-70 -54 -164 -55q-156 0 -238 141q-43 71 -62 170t-19 214z" />
<glyph unicode="H" horiz-adv-x="638" d="M51 0v483v519q0 23 23 23q24 0 23 -23v-495h437q3 0 8 -2v497q0 23 22 23q24 0 24 -23v-1002q0 -23 -24 -23q-23 0 -22 23v463q-3 -2 -8 -2h-437v-461q0 -23 -23 -23t-23 23z" />
<glyph unicode="I" horiz-adv-x="437" d="M51 0q0 23 23 23h122v956h-122q-23 0 -23 23t23 23h145h145q23 0 22 -23q0 -24 -22 -23h-122v-956h122q22 0 22 -21q0 -25 -22 -25h-145h-145q-23 0 -23 23z" />
<glyph unicode="J" horiz-adv-x="541" d="M51 242q0 23 23 22q24 0 23 -22q0 -109 45 -165q42 -54 124 -54t125 54q45 56 45 165v737h-122q-23 0 -22 23q0 23 22 23h145h144q24 0 24 -23q0 -24 -24 -23h-121v-737q0 -124 -55 -194q-56 -71 -161 -71q-102 0 -160 71q-55 69 -55 194z" />
<glyph unicode="K" horiz-adv-x="635" d="M51 0v502v500q0 23 23 23q24 0 23 -23v-444l440 460q8 8 16 8q7 0 15 -7q8 -9 8 -17t-7 -15l-464 -485l464 -487q7 -7 7 -14q0 -8 -8 -16q-16 -16 -31 1l-440 458v-444q0 -23 -23 -23t-23 23z" />
<glyph unicode="L" horiz-adv-x="562" d="M51 0v1002q0 23 23 23t23 -23v-979h391q23 0 23 -23t-23 -23h-414q-23 0 -23 23z" />
<glyph unicode="M" horiz-adv-x="820" d="M51 0v1002v2v2q1 12 16 18q5 1 10 1q14 0 18 -15l315 -938l314 938q5 15 19 15q4 0 10 -1q13 -6 15 -18q1 -1 1 -4v-1002q0 -23 -24 -23q-23 0 -22 23v862l-292 -868v-1q0 -1 -1 -1q-4 -9 -13 -12q-23 -7 -29 14l-291 868v-862q0 -23 -23 -23t-23 23z" />
<glyph unicode="N" horiz-adv-x="658" d="M51 0v1002v2q0 13 12 18q7 3 13 3q11 0 18 -12l467 -918v907q0 23 23 23t23 -23v-1002q0 -23 -23 -23q-14 0 -21 15l-466 915v-907q0 -23 -23 -23t-23 23z" />
<glyph unicode="O" horiz-adv-x="739" d="M51 502q0 113 19 211.5t62 171.5q82 140 238 140q155 0 238 -140q41 -73 60.5 -172t19.5 -211q0 -115 -19.5 -214.5t-60.5 -169.5q-85 -140 -238 -141q-156 0 -238 141q-43 71 -62 170t-19 214zM97 502q0 -110 17.5 -202.5t56.5 -158.5q68 -118 197 -118h2q129 0 198 118 q38 66 56.5 158.5t18.5 202.5q0 106 -18.5 199.5t-56.5 160.5q-70 117 -198 117q-130 0 -199 -117q-39 -67 -56.5 -160.5t-17.5 -199.5z" />
<glyph unicode="P" horiz-adv-x="592" d="M51 0v1002q0 23 23 23h2h169h1h1q139 0 217 -71q78 -74 78 -202q0 -131 -78 -203q-78 -71 -217 -71h-150v-478q0 -23 -23 -23t-23 23zM97 524h150q122 0 185 59q63 58 64 169q0 111 -64 169q-63 58 -185 58q-2 0 -2 1h-148v-456z" />
<glyph unicode="Q" horiz-adv-x="748" d="M51 502q0 113 19 211.5t62 171.5q82 140 238 140q155 0 238 -140q41 -73 60.5 -172t19.5 -211q0 -115 -19.5 -214.5t-60.5 -169.5q-9 -15 -11 -18l84 -84q8 -8 8 -15.5t-8 -15.5q-9 -8 -17 -8t-16 8l-80 78q-78 -86 -198 -86q-156 0 -238 141q-43 71 -62 170t-19 214z M97 502q0 -110 17.5 -202.5t56.5 -158.5q68 -118 197 -118h2q100 0 167 74l-183 181q-15 16 0 32q16 16 33 0l176 -177q4 5 5 8q38 66 56.5 158.5t18.5 202.5q0 106 -18.5 200t-56.5 160q-70 117 -198 117q-130 0 -199 -117q-39 -67 -56.5 -160.5t-17.5 -199.5z" />
<glyph unicode="R" horiz-adv-x="601" d="M51 0v502v500v1v2q2 20 23 20h171h1h1q139 0 217 -71q78 -74 78 -202q0 -131 -78 -203q-78 -71 -217 -71h-122l411 -463q7 -7 7 -15t-9 -16q-8 -7 -15 -7l-17 9l-405 455v-441q0 -23 -23 -23t-23 23zM97 524h150q122 0 185 59q63 58 64 169q0 111 -64 169q-63 58 -185 58 q-2 0 -2 1h-148v-456z" />
<glyph unicode="S" horiz-adv-x="671" d="M58 185q-2 6 -2 10q0 14 16 19q20 9 28 -13q34 -90 89 -134q54 -44 135 -44q96 0 161 52q62 48 72 129q2 22 2 42q0 107 -68 158q-81 61 -178 104q-102 46 -182 106q-67 50 -67 152q0 21 3 43q11 97 88 157q76 59 187 59q92 0 161 -52q67 -52 104 -152q1 -6 1 -10 q0 -14 -14 -18q-22 -10 -30 12q-33 87 -90 132q-55 42 -132 42q-96 0 -159 -50q-62 -46 -71 -125q-2 -17 -2 -33q0 -87 60 -129q71 -50 162 -92q109 -48 199 -118q75 -58 75 -181q0 -25 -3 -52q-13 -100 -89 -161q-80 -60 -190 -61q-92 1 -162 54q-68 52 -104 154z" />
<glyph unicode="T" horiz-adv-x="711" d="M51 1002q0 23 23 23h282h282q23 0 22 -23q0 -24 -22 -23h-259v-979q0 -23 -23 -23t-22 23v979h-260q-23 0 -23 23z" />
<glyph unicode="U" horiz-adv-x="739" d="M51 403v599q0 23 23 23q24 0 23 -23v-599q0 -186 72 -285q70 -95 201 -95q129 0 199 95q74 99 74 285v599q0 23 22 23q24 0 23 -23v-599q0 -92 -19.5 -173.5t-62.5 -138.5q-83 -114 -236 -114q-155 0 -237 114q-44 57 -63 138.5t-19 173.5z" />
<glyph unicode="V" horiz-adv-x="807" d="M55 995q-1 4 -1 7q0 16 16 22q5 1 10 1q14 0 18 -15l304 -936l305 936q5 15 20 15q4 0 9 -1q16 -6 16 -21q0 -4 -1 -8l-326 -1001q0 -5 -6 -8.5t-16 -3.5q-9 0 -15.5 3.5t-6.5 8.5z" />
<glyph unicode="W" horiz-adv-x="1120" d="M55 997q-1 4 -1 7q0 16 18 20q4 1 8 1q14 0 19 -17l219 -911l220 911q3 13 17 16q5 1 9 1q14 0 18 -17l220 -911l219 911q3 18 17 18q4 0 10 -2q18 -4 18 -19q0 -3 -1 -8l-242 -1001v-1v-1q-4 -12 -16 -16q-5 -1 -9 -1q-16 0 -19 19l-219 909l-219 -909q-4 -19 -20 -19 q-4 0 -8 1q-14 3 -16 18z" />
<glyph unicode="X" horiz-adv-x="656" d="M60 10l242 492l-242 490q-2 6 -2 11q0 12 13 19q7 3 12 3q11 0 18 -12l226 -461l226 461q7 12 18 12q6 0 13 -3q13 -6 13 -17q0 -6 -3 -13l-242 -490l242 -492q4 -7 4 -12q0 -10 -14 -17q-6 -2 -12 -2q-12 0 -19 12l-226 459l-226 -459q-7 -12 -19 -12q-5 0 -11 2 q-13 7 -13 19q0 4 2 10z" />
<glyph unicode="Y" horiz-adv-x="654" d="M59 992q-2 6 -2 11q0 12 13 19q7 3 12 3q11 0 18 -12l226 -461l226 461q7 12 18 12q6 0 13 -3q13 -6 13 -17q0 -6 -3 -13l-244 -495v-497q0 -23 -23 -23t-23 23v497z" />
<glyph unicode="Z" horiz-adv-x="640" d="M51 0q0 7 3 12l475 967h-455q-23 0 -23 23t23 23h492q23 0 23 -23q0 -8 -3 -12l-475 -967h455q23 0 23 -23t-23 -23h-492q-23 0 -23 23z" />
<glyph unicode="[" horiz-adv-x="200" d="M70 -66v1134q-1 24 22 24h123q23 0 23 -24q0 -23 -23 -22h-99v-1092h99q23 0 23 -24q0 -23 -23 -22h-120h-3q-4 0 -7 1q-4 1 -7 2q-6 4 -8 12v7v4z" />
<glyph unicode="\" horiz-adv-x="552" d="M17 991q-9 20 12 31q20 10 30 -10l472 -978q10 -20 -10 -30q-22 -10 -31 10z" />
<glyph unicode="]" horiz-adv-x="200" d="M70 -73q0 24 22 24h99v1095h-99q-23 0 -22 22q0 24 22 24h123q23 0 23 -24v-1137v-4v-7q-2 -8 -9 -12q-3 -1 -7 -2q-3 -1 -7 -1h-3h-120q-23 0 -22 22z" />
<glyph unicode="^" horiz-adv-x="600" d="M60 16l221 483q1 5 6.5 9t13.5 4t14 -4t7 -9l219 -483q8 -20 -12 -29q-19 -9 -29 11l-200 437l-198 -437q-8 -19 -30 -11q-21 10 -12 29z" />
<glyph unicode="_" horiz-adv-x="516" d="M-22 -148q-1 23 23 22h514q22 -1 23 -25q0 -24 -24 -23l-513 1q-25 0 -23 25z" />
<glyph unicode="`" horiz-adv-x="307" d="M49 827q12 19 33 8l169 -102q19 -12 8 -31q-12 -20 -32 -9l-170 103q-19 11 -8 31z" />
<glyph unicode="a" d="M51 242q0 125 55 193q57 72 160 72t161 -72q7 -8 9 -12v60q0 24 23 24t23 -24v-241v-242q0 -23 -23 -23t-23 23v61q-2 -4 -9 -13q-56 -71 -161 -71q-102 0 -160 71q-55 69 -55 194zM97 242q0 -109 45 -165q42 -54 124 -54t125 54q45 56 45 165q0 108 -45 166 q-43 53 -125 53t-124 -53q-45 -58 -45 -166z" />
<glyph unicode="b" d="M51 1v242v757q0 23 23 23q24 0 23 -23v-577q2 4 9 13q56 71 161 71q102 0 160 -71q55 -69 55 -193q0 -125 -55 -194q-57 -72 -160 -72t-161 72q-7 8 -9 13v-61q0 -24 -23 -24t-23 24zM97 243q0 -108 45 -165q43 -54 125 -54q81 0 124 54q45 57 45 165q0 109 -45 165 q-43 54 -124 54q-82 0 -125 -54q-45 -56 -45 -165z" />
<glyph unicode="c" horiz-adv-x="520" d="M51 242q0 125 55 193q57 72 160 72q69 0 120 -35q48 -32 75 -97q2 -6 2 -11q0 -14 -16 -19q-22 -7 -29 13q-19 50 -58 77q-38 26 -94 26q-82 0 -124 -53q-45 -58 -45 -166q0 -109 45 -165q42 -54 124 -54q56 0 94 25q38 26 58 77q8 22 29 12q16 -4 16 -18q0 -4 -2 -10 q-27 -66 -75 -99q-50 -33 -120 -33q-102 0 -160 71q-55 69 -55 194z" />
<glyph unicode="d" d="M51 243q0 125 55 193q57 71 160 71q104 0 161 -71q7 -9 9 -13v577q0 23 24 23q23 0 22 -23v-757v-242q0 -24 -22 -24q-24 0 -24 24v61q-2 -5 -9 -13q-57 -72 -161 -72q-102 0 -160 72q-55 69 -55 194zM97 243q0 -108 45 -165q43 -54 124 -54q82 0 125 54q45 57 45 165 q0 109 -45 165q-43 54 -125 54q-81 0 -124 -54q-45 -56 -45 -165z" />
<glyph unicode="e" horiz-adv-x="532" d="M50 242q0 125 55 193q57 72 160 72t161 -72q55 -71 55 -193q0 -23 -23 -23h-362q5 -92 45 -142q42 -54 124 -54q56 0 94 25q38 26 58 77q8 22 29 12q21 -6 14 -28q-27 -66 -75 -99q-50 -33 -120 -33q-102 0 -160 71q-33 40 -44 91.5t-11 102.5zM96 264h339q-6 92 -45 144 q-43 53 -125 53t-124 -53q-40 -51 -45 -144z" />
<glyph unicode="f" horiz-adv-x="129" d="M-30 614h70v215q0 90 42 144q42 52 119 52q52 0 89 -25q38 -26 55 -72q3 -7 3 -13q0 -13 -15 -18q-23 -9 -30 14q-14 34 -38 52q-26 16 -64 16q-55 0 -83 -36q-32 -39 -32 -114v-215h167q23 0 22 -21q0 -24 -22 -24h-167v-569q0 -23 -21 -23q-25 0 -25 23v569h-70 q-22 0 -22 22q0 24 22 23z" />
<glyph unicode="g" d="M51 242q0 125 55 193q57 72 160 72t161 -72q7 -8 9 -12v60q0 24 23 24q24 0 23 -24v-241v-475q0 -124 -55 -194q-57 -72 -161 -72q-69 0 -119 34q-49 33 -74 97q-9 23 13 30q21 9 30 -13q18 -50 57 -76q37 -26 93 -26q82 0 125 54q45 57 45 166v294q-2 -4 -9 -13 q-56 -71 -161 -71q-102 0 -160 71q-55 69 -55 194zM97 242q0 -109 45 -165q42 -54 124 -54t125 54q45 56 45 165q0 108 -45 166q-43 53 -125 53t-124 -53q-45 -58 -45 -166z" />
<glyph unicode="h" d="M51 0v242v760q0 23 23 23q24 0 23 -23v-579q2 4 9 12q57 72 160 72t161 -72q55 -71 55 -193v-242q0 -23 -23 -23t-23 23v242q0 108 -45 166q-43 53 -125 53t-124 -53q-45 -58 -45 -166v-242q0 -23 -23 -23t-23 23z" />
<glyph unicode="i" horiz-adv-x="174" d="M37 764q0 26 15 43.5t36 17.5q22 0 37 -17.5t15 -43.5t-15 -43.5t-37 -17.5t-36.5 17.5t-14.5 43.5zM63 0v483q0 24 23 24q24 0 24 -24v-483q0 -23 -24 -23q-23 0 -23 23z" />
<glyph unicode="j" horiz-adv-x="159" d="M-202 -400q-1 5 -1 9q0 14 15 19q21 11 29 -12q13 -34 38 -52q26 -16 64 -17q56 0 84 35q31 40 30 115v786q0 24 23 24t22 -24v-786q0 -89 -40 -142q-41 -53 -119 -54q-50 0 -89 26q-36 25 -56 73zM31 764q0 26 14.5 43.5t36.5 17.5t37 -17.5t15 -43.5t-15.5 -43.5 t-36.5 -17.5q-22 0 -36.5 17.5t-14.5 43.5z" />
<glyph unicode="k" horiz-adv-x="500" d="M51 0v501v501q0 23 23 23q24 0 23 -23v-716l309 217q18 11 32 -6q4 -8 4 -14q0 -10 -10 -18l-318 -223l318 -224q10 -8 10 -18q0 -6 -4 -12q-14 -18 -32 -5l-309 215v-198q0 -23 -23 -23t-23 23z" />
<glyph unicode="l" horiz-adv-x="148" d="M51 0v1002q0 23 23 23t23 -23v-1002q0 -23 -23 -23t-23 23z" />
<glyph unicode="m" horiz-adv-x="727" d="M51 0v242v241q0 24 23 24q24 0 23 -24v-43q44 67 122 67q82 0 126 -75q10 -18 19 -39q5 16 18 39q43 75 127 75q82 0 126 -75q41 -68 41 -190v-242q0 -23 -23 -23q-24 0 -23 23v242q0 110 -34 168q-33 51 -87 51q-58 0 -88 -51q-35 -60 -35 -168v-242q0 -23 -22 -23 q-23 0 -23 23v242q0 108 -35 168q-33 51 -87 51q-57 0 -87 -51q-35 -57 -35 -168v-242q0 -23 -23 -23t-23 23z" />
<glyph unicode="n" d="M51 0v242v241q0 24 23 24q24 0 23 -24v-60q2 4 9 12q57 72 160 72t161 -72q55 -71 55 -193v-242q0 -23 -23 -23t-23 23v242q0 108 -45 166q-43 53 -125 53t-124 -53q-45 -58 -45 -166v-242q0 -23 -23 -23t-23 23z" />
<glyph unicode="o" horiz-adv-x="534" d="M51 242q0 124 55 193q57 72 160 72t161 -72q55 -71 55 -193q0 -124 -55 -194q-56 -71 -161 -71q-102 0 -160 71q-55 69 -55 194zM97 242q0 -109 45 -165q42 -54 124 -54t125 54q45 56 45 165q0 108 -45 166q-43 53 -125 53t-124 -53q-45 -58 -45 -166z" />
<glyph unicode="p" d="M51 242v241q0 24 23 24t23 -24v-60q2 4 9 12q57 72 160 72t161 -72q55 -71 55 -193q0 -124 -55 -194q-56 -71 -161 -71q-102 0 -160 71q-7 9 -9 13v-537q0 -23 -23 -23t-23 23v718zM97 242q0 -109 45 -165q42 -54 124 -54t125 54q45 56 45 165q0 108 -45 166 q-43 53 -125 53t-124 -53q-45 -58 -45 -166z" />
<glyph unicode="q" horiz-adv-x="538" d="M51 242q0 125 55 193q57 72 160 72t161 -72q7 -8 9 -12v60q0 24 23 24q24 0 23 -24v-241v-277l103 239q9 19 29 13q15 -7 15 -20q0 -5 -2 -11l-145 -338v-324q0 -23 -23 -23t-23 23v537q-2 -4 -9 -13q-56 -71 -161 -71q-102 0 -160 71q-55 69 -55 194zM97 242 q0 -109 45 -165q42 -54 124 -54t125 54q45 56 45 165q0 108 -45 166q-43 53 -125 53t-124 -53q-45 -58 -45 -166z" />
<glyph unicode="r" horiz-adv-x="520" d="M51 0v242v241q0 24 23 24t23 -24v-60q2 4 9 12q57 72 160 72q69 0 120 -35q48 -32 75 -97q2 -6 2 -11q0 -14 -16 -19q-22 -7 -29 13q-19 50 -58 77q-38 26 -94 26q-82 0 -124 -53q-45 -58 -45 -166v-242q0 -23 -23 -23t-23 23z" />
<glyph unicode="s" horiz-adv-x="536" d="M60 82q-3 6 -3 12q0 12 14 19q19 9 29 -10q23 -40 63 -59q37 -21 93 -21h5q70 0 119 24q41 23 46 54q1 9 1 16q0 45 -48 69q-57 28 -126 47q-78 25 -139 55q-50 25 -50 79q0 12 2 25q10 53 70 85q58 30 137 30q68 0 119 -26q49 -27 80 -78q4 -8 4 -14q0 -10 -12 -16 q-20 -11 -31 8q-23 39 -62 59q-40 20 -98 21q-69 0 -116 -24q-41 -24 -46 -52q-1 -6 -1 -12q0 -35 42 -55q50 -23 114 -40q82 -25 150 -61q57 -30 57 -96q0 -13 -2 -28q-10 -55 -71 -86q-58 -30 -139 -30q-69 0 -120 26t-81 79z" />
<glyph unicode="t" horiz-adv-x="410" d="M-41 593q0 21 23 21h81v388q0 23 24 23q23 0 23 -23v-388h154q23 0 23 -21q0 -24 -23 -24h-154v-397q0 -75 31 -114q26 -35 80 -35h3q38 0 64 17q24 16 39 52q7 20 29 12q15 -6 15 -18q0 -4 -2 -10q-17 -48 -56 -74q-39 -25 -89 -25q-77 0 -119 54q-42 51 -42 141v397 h-81q-23 0 -23 24z" />
<glyph unicode="u" d="M51 242v241q0 24 23 24q24 0 23 -24v-241q0 -109 45 -165q42 -54 124 -54t125 54q45 56 45 165v241q0 24 23 24q24 0 23 -24v-241v-242q0 -23 -23 -23t-23 23v61q-2 -4 -9 -13q-56 -71 -161 -71q-102 0 -160 71q-55 69 -55 194z" />
<glyph unicode="v" horiz-adv-x="600" d="M59 474q-2 6 -2 11q0 12 14 19q6 3 11 3q11 0 18 -14l200 -438l198 438q6 13 18 13q5 0 12 -2q15 -8 15 -19q0 -5 -3 -11l-221 -482v-1v-1v-1l-2 -1v-1h-1v-1l-1 -1l-1 -1v-1h-1h-1.5t-0.5 -1h-1v-1h-1l-1 -1h-1q-5 -2 -7 -3q-3 0 -8 3h-1h-1v1h-1v1h-1h-1q0 1 -1 1h-1v1 h-1v1h-1v1l-1 1v1l-2 1v1v1h-1v1z" />
<glyph unicode="w" horiz-adv-x="814" d="M55 476q-1 4 -1 7q0 16 16 22q23 7 28 -15l144 -418l142 418l1 2v1q1 3 5 7q2 3 6 4v1h1h1l1 1h1h1h1h1h1l2 1h1l1 -1h2h1h1h1v-1h1h1l1 -1q3 -1 6 -4q4 -6 5 -7v-1v-2l143 -418l143 418q8 22 29 15q16 -6 16 -21q0 -4 -1 -8l-165 -483v-1q-2 -4 -5 -7q-2 -2 -7 -5h-1h-1 l-1 -2h-2h-1l-1 -1h-1h-1h-1h-1h-1h-2v1h-1h-1h-1v2h-1l-8 5q-3 3 -4 7v1h-1l-142 420l-144 -420h-1v-1q-1 -4 -5 -7q-1 -2 -6 -5h-1h-1l-1 -2h-1h-1l-1 -1h-1h-1h-1h-1h-1h-2v1h-1h-1h-2v2h-1h-1l-7 5q-3 3 -4 7l-1 1z" />
<glyph unicode="x" horiz-adv-x="537" d="M63 13l177 229l-177 227q-5 7 -5 14q0 9 9 19q8 6 15 6q9 0 17 -10l168 -219l169 219q8 10 17 10q7 0 16 -6q9 -8 9 -17q0 -8 -6 -16l-176 -227l176 -229q6 -7 6 -14q0 -8 -9 -16q-8 -5 -15 -5q-10 0 -18 10l-169 216l-168 -216q-8 -10 -18 -10q-7 0 -14 5q-9 9 -9 17 q0 7 5 13z" />
<glyph unicode="y" horiz-adv-x="600" d="M59 474q-2 6 -2 11q0 12 14 19q6 3 11 3q11 0 18 -14l200 -438l198 438q6 13 18 13q5 0 12 -2q15 -8 15 -19q0 -5 -3 -11l-436 -959q-7 -14 -20 -14q-4 0 -10 2q-20 10 -12 30l212 467z" />
<glyph unicode="z" horiz-adv-x="521" d="M51 0q0 7 6 15l344 446h-327q-23 0 -23 22q0 24 23 24h373q23 0 23 -24q0 -11 -6 -15l-343 -445h326q23 0 23 -23t-23 -23h-373q-23 0 -23 23z" />
<glyph unicode="{" horiz-adv-x="386" d="M65 470q-13 16 4 31l13 -19l-13 19q92 68 100.5 136t1.5 136q-10 78 -0.5 156.5t120.5 156.5q17 14 32 -5q11 -19 -6 -31q-93 -68 -101.5 -136t-0.5 -136q9 -74 1.5 -148t-96.5 -148q89 -74 96.5 -147.5t-1.5 -147.5q-8 -69 0.5 -136t101.5 -135q17 -12 6 -31 q-14 -19 -32 -5q-111 79 -120.5 156.5t0.5 156.5q7 69 -1.5 136t-99.5 135q-4 1 -5 6z" />
<glyph unicode="|" horiz-adv-x="148" d="M51 -485v1565q0 23 23 23t23 -23v-1565q0 -23 -23 -23t-23 23z" />
<glyph unicode="}" horiz-adv-x="386" d="M63 -115q-11 20 6 32q93 68 101.5 136t0.5 135q-9 74 -1.5 148.5t96.5 147.5q-89 74 -96.5 148t1.5 147q8 69 -0.5 136.5t-101.5 135.5q-17 12 -6 30q14 19 32 5q111 -79 120.5 -156t-0.5 -156q-7 -69 1.5 -136.5t99.5 -134.5q4 -1 6 -6q13 -16 -5 -31l-13 18l13 -18 q-92 -68 -100.5 -136t-1.5 -136q10 -78 0.5 -156.5t-120.5 -157.5q-17 -14 -32 5z" />
<glyph unicode="~" horiz-adv-x="456" d="M19 398q25 33 48.5 57.5t51.5 33.5q60 19 125 -66q23 -33 48 -39q13 -4 26 -1q12 4 28 14q38 28 53 76q6 23 29 17q23 -8 16 -29q-19 -65 -69 -102q-23 -17 -45 -21q-28 -7 -52 1q-40 12 -72 56q-44 59 -73 49q-17 -5 -36 -26t-41 -48q-14 -20 -32 -5q-19 15 -5 33z" />
<glyph unicode="&#xa1;" horiz-adv-x="205" d="M51 504q0 26 15.5 43t36.5 17q22 0 37 -17t15 -43t-15 -44t-37 -18t-37 18t-15 44zM85 340q0 23 24 22q23 0 22 -22v-796q0 -24 -22 -23q-24 -1 -24 23v796z" />
<glyph unicode="&#xa2;" horiz-adv-x="520" d="M51 384q0 125 55 194q48 60 131 69v102q0 23 22 22q24 1 24 -22v-101q58 -3 103 -34q48 -32 75 -97q8 -23 -14 -30t-29 14q-19 50 -58 77q-33 22 -77 24v-437q45 4 77 25q38 26 58 77q8 22 29 13q20 -7 14 -29q-27 -66 -75 -98q-44 -29 -103 -33v-109q0 -23 -24 -22 q-23 0 -22 22v110q-82 9 -131 69q-55 69 -55 194zM97 384q0 -109 45 -165q34 -44 95 -52v434q-61 -8 -95 -51q-45 -58 -45 -166z" />
<glyph unicode="&#xa3;" horiz-adv-x="695" d="M51 0q0 24 24 24h121v319h-64q-25 0 -23 25q0 23 23 22h64v371q0 124 55 193q56 71 161 71q102 0 159 -71q55 -69 56 -193q0 -23 -23 -23q-24 0 -23 23q0 109 -45 165q-42 54 -124 54t-125 -54q-45 -56 -45 -165v-371h279q23 -1 23 -25t-23 -23l-279 1v-319h389 q23 0 22 -24q0 -23 -22 -23h-556q-24 0 -24 23z" />
<glyph unicode="&#xa4;" horiz-adv-x="562" d="M69 288q-17 16 0 31l66 69q-39 48 -39 114q0 63 39 112l-66 69q-17 15 0 32q15 16 31 0l68 -67q50 39 114 39q62 0 113 -39l68 67q15 16 33 0q15 -16 0 -32l-68 -69q39 -49 39 -112q0 -66 -39 -114l68 -69q15 -15 0 -31q-17 -15 -33 0l-68 67q-49 -39 -113 -39 q-66 0 -114 39l-68 -67q-16 -16 -31 0zM142 502q0 -58 41 -99q40 -41 99 -41q57 0 98 41q41 40 41 99q0 56 -41 98q-41 41 -98 41q-58 0 -99 -41q-41 -42 -41 -98z" />
<glyph unicode="&#xa5;" horiz-adv-x="654" d="M59 992q-8 20 11 30t30 -9l226 -461l226 461q11 19 31 9q20 -9 10 -30l-244 -495v-34h124q23 -1 24 -25q0 -24 -25 -24h-123v-121h124q23 0 24 -25q0 -24 -25 -23h-123v-245q0 -23 -23 -23t-23 23v245l-120 1q-25 0 -23 24q-1 23 23 23h120v122l-122 1q-24 0 -22 23 q0 24 22 24h122v34z" />
<glyph unicode="&#xa6;" horiz-adv-x="152" d="M55 242h46v-727q1 -23 -23 -23q-23 0 -23 23v727zM55 449v631q0 23 23 23t23 -23v-631h-46z" />
<glyph unicode="&#xa7;" horiz-adv-x="536" d="M59 124q-7 22 11 35q10 6 17.5 2.5t12.5 -11.5q13 -31 29 -55t37 -38q41 -35 101 -34q35 0 66 10.5t57 27.5q20 17 33 39.5t15 49.5q12 95 -49 135q-33 20 -65.5 38t-65.5 32q-42 17 -78 38t-65 41q-52 38 -53 113q0 7 0.5 15t2.5 18q4 33 18 61t41 50l10 10l-19 15 q-25 18 -39 46.5t-14 64.5q0 8 1 16.5t2 17.5q9 72 72 119q58 42 144 42q76 0 121 -36q28 -20 48.5 -48t35.5 -64q7 -19 -8 -32q-11 -8 -19 -5t-14 13q-12 30 -29 53.5t-35 37.5q-45 34 -100 34q-69 0 -122 -38q-19 -16 -32 -38t-15 -46q-11 -74 42 -109q56 -37 118 -62 q90 -38 157 -87q58 -46 58 -135q0 -9 -0.5 -19t-1.5 -21q-3 -29 -15 -53.5t-33 -44.5l-5 -7q26 -24 40.5 -59t14.5 -76v-20t-2 -21q-6 -36 -24 -66.5t-49 -54.5q-56 -41 -145 -41q-75 0 -125 35q-56 42 -83 112zM112 571q-5 -36 6 -63.5t36 -44.5q56 -36 118 -61 q34 -16 63 -31.5t53 -29.5v-1l2 2q43 33 48 88q12 93 -49 134q-33 22 -65.5 40t-65.5 32q-19 9 -40.5 21t-39.5 21l-19 -21q-20 -18 -32.5 -39.5t-14.5 -46.5z" />
<glyph unicode="&#xa8;" horiz-adv-x="307" d="M25 764q0 26 14.5 43.5t36.5 17.5t37 -17.5t15 -43.5t-15.5 -43.5t-36.5 -17.5q-22 0 -36.5 17.5t-14.5 43.5zM183 764q0 26 15 43.5t36 17.5q22 0 37.5 -17.5t15.5 -43.5t-15.5 -43.5t-37.5 -17.5t-36.5 17.5t-14.5 43.5z" />
<glyph unicode="&#xa9;" horiz-adv-x="1149" d="M51 502q0 216 153 370q153 153 370 153q218 0 371 -153q154 -154 154 -370q0 -218 -154 -371q-153 -153 -371 -153q-217 0 -370 153q-153 154 -153 371zM97 502q0 -198 141 -338q138 -140 336 -140t338 140t141 338q-1 198 -141 338q-140 139 -338 139t-336 -139 q-140 -140 -141 -338zM317 502q0 194 65 300q66 113 188 112q74 0 131 -44q52 -42 84 -124q9 -22 -13 -28q-22 -8 -30 12q-27 69 -69 105q-44 34 -103 33q-98 0 -149 -89q-57 -98 -57 -277q0 -153 47 -260t159 -107q60 0 103 34t69 103q8 22 30 14q21 -10 13 -30 q-32 -82 -84 -123q-55 -44 -131 -44q-138 0 -195.5 121t-57.5 292z" />
<glyph unicode="&#xaa;" d="M51 752q0 125 55 193q57 72 160 72t161 -72q7 -8 9 -12v60q0 24 23 24t23 -24v-241v-242q0 -23 -23 -23t-23 23v61q-2 -4 -9 -13q-56 -71 -161 -71q-102 0 -160 71q-55 69 -55 194zM97 752q0 -109 45 -165q42 -54 124 -54t125 54q45 56 45 165q0 108 -45 166 q-43 53 -125 53t-124 -53q-45 -58 -45 -166z" />
<glyph unicode="&#xab;" horiz-adv-x="520" d="M51 243l197 254q14 18 33 5q15 -15 3 -31l-176 -228l176 -228q12 -17 -3 -32q-19 -13 -33 4zM233 243l197 254q14 18 33 5q15 -15 3 -31l-176 -228l176 -228q12 -17 -3 -32q-19 -13 -33 4z" />
<glyph unicode="&#xac;" horiz-adv-x="649" d="M109 368q0 23 23 22h385q23 -1 26 -24l-1 -139q0 -24 -25 -23q-23 0 -22 23v115l-363 1q-25 0 -23 25z" />
<glyph unicode="&#xad;" horiz-adv-x="649" d="M109 368q0 23 23 22h389q23 -1 23 -25t-23 -23l-389 1q-25 0 -23 25z" />
<glyph unicode="&#xae;" horiz-adv-x="641" d="M48 742q0 118 83 200q82 83 200 83t199 -83q83 -82 83 -200t-83 -199q-82 -83 -199 -83q-118 0 -200 83q-83 82 -83 199zM93 742q0 -97 70 -168q70 -69 168 -68q97 0 168 68q69 70 68 168q1 98 -68 168q-71 69 -168 69q-98 0 -168 -69q-70 -71 -70 -168zM246 566v178v180 q0 23 22 22h2h59h1q54 0 87 -28q33 -32 33 -83q0 -53 -33 -84q-33 -29 -87 -29h-12l125 -140q15 -16 -1 -32q-17 -16 -32 1l-118 134v-119q0 -23 -24 -22q-23 0 -22 22zM292 768h38q36 0 56 16q17 15 17 51q0 33 -17 49q-20 16 -56 16h-1h-37v-132z" />
<glyph unicode="&#xaf;" horiz-adv-x="534" d="M52 766q0 23 24 22h389q23 -1 22 -25q1 -24 -22 -23l-389 1q-25 0 -24 25z" />
<glyph unicode="&#xb0;" horiz-adv-x="402" d="M47 865q0 33 12.5 61.5t33.5 50t49.5 34t61.5 12.5t61.5 -12.5t50 -34t33.5 -50t12 -61.5t-12 -61.5t-33.5 -49.5t-50 -33t-61.5 -12t-61.5 12t-49.5 33t-33.5 49.5t-12.5 61.5zM93 865q0 -24 9 -43.5t24 -34.5t35 -23.5t43 -8.5t43 8.5t35.5 23.5t24 35t8.5 43 t-8.5 43.5t-24 35.5t-36 24t-42.5 9q-23 0 -43 -9t-35 -24t-24 -35.5t-9 -43.5z" />
<glyph unicode="&#xb1;" horiz-adv-x="649" d="M109 158q0 23 23 22h389q23 -1 23 -25t-23 -23l-389 1q-25 0 -23 25zM109 456q0 23 23 22h169v171q1 23 26 23q24 0 22 -23l-1 -171h173q23 -1 23 -25t-23 -23h-173v-170q0 -25 -24 -23q-23 0 -23 23v170l-169 1q-25 0 -23 25z" />
<glyph unicode="&#xb2;" horiz-adv-x="391" d="M20 410q0 9 9 17h-1q60 61 119.5 123t119.5 125q12 11 21 27t15 30q13 38 13 74q0 67 -38 120q-36 46 -84 46q-50 0 -84 -46q-39 -51 -39 -120q0 -26 -26 -26q-25 0 -25 26q0 89 50 150h-1q50 66 125 66t124 -66q48 -63 49 -150q0 -48 -17 -90q-18 -47 -46 -76l-199 -206 h236q26 0 26 -24q0 -26 -26 -26h-296q-25 0 -25 26z" />
<glyph unicode="&#xb3;" horiz-adv-x="391" d="M20 557q0 26 25 26q26 0 26 -26q0 -51 35 -87v1q38 -36 88 -36t87 35q36 38 35 87q0 51 -35 85q-36 36 -87 36q-26 0 -26 27q0 25 26 24q50 0 87 35q36 36 35 86q0 52 -35 86q-37 37 -87 37t-88 -37q-36 -33 -35 -86q0 -25 -26 -25q-25 0 -25 25q0 72 52 123 q50 50 122 50q69 0 121 -50q51 -53 52 -123q0 -70 -52 -121q-10 -9 -14.5 -13.5t-15.5 -10.5q15 -11 30 -27q51 -51 52 -121q0 -70 -52 -121q-51 -51 -121 -51q-71 0 -122 51q-51 50 -52 121z" />
<glyph unicode="&#xb4;" horiz-adv-x="307" d="M49 702q-11 18 8 31l169 102q20 12 33 -8q11 -20 -8 -31l-170 -103q-19 -11 -32 9z" />
<glyph unicode="&#xb5;" d="M51 483q0 24 23 24q24 0 23 -24v-241q0 -109 45 -165q42 -54 124 -54t125 54q45 56 45 165v241q0 24 23 24q24 0 23 -24v-483q0 -23 -23 -23t-23 23v61q-2 -4 -9 -13q-56 -71 -161 -71q-102 0 -160 71q-5 5 -9 12v-548q0 -23 -23 -23t-23 23v971z" />
<glyph unicode="&#xb6;" horiz-adv-x="557" d="M26 816q0 98 39 152q39 53 105 56l356 1q23 0 23 -24q0 -23 -23 -22h-105v-979q0 -23 -24 -23q-23 0 -22 23v979h-171v-979q0 -23 -24 -23q-23 0 -22 23v610q-57 6 -93 55q-39 54 -39 151z" />
<glyph unicode="&#xb7;" horiz-adv-x="206" d="M53 458q0 26 15 43.5t36 17.5q22 0 37.5 -18t15.5 -43q0 -26 -15.5 -43.5t-37.5 -17.5t-36.5 17.5t-14.5 43.5z" />
<glyph unicode="&#xb8;" horiz-adv-x="167" d="M16 -293q63 92 84 149q18 50 -5 58q-28 -11 -43.5 -12t-32.5 17q-8 15 1.5 41t19.5 56q2 7 3 16h49q-4 -15 -6 -28q-8 -26 -13 -49q5 5 13 9q37 22 54 -4q33 -43 4 -122q-22 -60 -87 -156q-14 -19 -33 -8q-17 14 -8 33z" />
<glyph unicode="&#xb9;" horiz-adv-x="130" d="M39 412v587q0 26 24 26q27 0 27 -26v-587q0 -25 -27 -25q-25 0 -24 25z" />
<glyph unicode="&#xba;" horiz-adv-x="534" d="M51 766q0 124 55 193q57 72 160 72t161 -72q55 -71 55 -193q0 -124 -55 -194q-56 -71 -161 -71q-102 0 -160 71q-55 69 -55 194zM97 766q0 -109 45 -165q42 -54 124 -54t125 54q45 56 45 165q0 108 -45 166q-43 53 -125 53t-124 -53q-45 -58 -45 -166z" />
<glyph unicode="&#xbb;" horiz-adv-x="520" d="M63 13l177 229l-177 227q-12 17 4 33q18 13 32 -4l197 -256l-197 -254q-14 -18 -32 -5q-15 15 -4 30zM246 13l176 229l-176 227q-12 17 3 33q19 13 33 -4l196 -256l-196 -254q-14 -18 -33 -5q-15 15 -3 30z" />
<glyph unicode="&#xbc;" horiz-adv-x="823" d="M61 34l473 978q10 20 30 10q20 -11 11 -31l-473 -977q-9 -20 -30 -10q-20 9 -11 30zM65 412v587q0 26 24 26q27 0 27 -26v-587q0 -25 -27 -25q-25 0 -24 25zM429 284l23 317q3 24 26 24q27 -3 24 -28q-5 -73 -10.5 -138.5t-10.5 -137.5h106v278q0 26 24 26q25 0 25 -26 v-278h110q26 0 26 -26q0 -25 -26 -25h-110v-258q0 -26 -25 -25q-25 0 -24 25v258h-133q-18 2 -23 14h-2z" />
<glyph unicode="&#xbd;" horiz-adv-x="792" d="M61 34l473 978q10 20 30 10q20 -11 11 -31l-473 -977q-9 -20 -30 -10q-20 9 -11 30zM73 412v587q0 26 24 26q27 0 27 -26v-587q0 -25 -27 -25q-25 0 -24 25zM395 12q0 9 8 18h-1q60 61 120 123t120 125q12 11 21 27t15 30q13 38 13 74q0 67 -39 119q-36 46 -84 46 q-50 0 -84 -46q-39 -51 -39 -119q0 -26 -25 -26t-25 26q0 89 49 150h-1q50 66 125 66t125 -66q48 -63 48 -150q0 -48 -16 -91q-18 -47 -46 -75l-199 -206h236q26 0 25 -25q0 -26 -25 -25h-296q-25 0 -25 25z" />
<glyph unicode="&#xbe;" horiz-adv-x="996" d="M51 559q0 26 25 26q26 0 25 -26q0 -51 36 -87v1q38 -36 87 -36q50 0 87 35q36 38 36 87q0 51 -36 85q-36 36 -87 36q-26 0 -25 27q0 25 25 24q50 0 87 35q36 36 36 86q0 52 -36 86q-37 37 -87 37t-87 -37q-36 -33 -36 -86q0 -25 -25 -25t-25 25q0 70 51 123q50 50 122 50 q69 0 122 -50q51 -53 51 -123t-51 -121q-10 -9 -14.5 -13.5t-16.5 -10.5q15 -11 31 -27q51 -51 51 -121t-51 -121t-122 -51t-122 51t-51 121zM234 34l473 978q10 20 30 10q21 -11 12 -31l-474 -977q-9 -20 -30 -10q-20 9 -11 30zM602 284l23 317q3 24 26 24q27 -3 24 -28 q-5 -73 -10.5 -138.5t-10.5 -137.5h106v278q0 26 24 26q25 0 25 -26v-278h111q26 0 25 -26q0 -25 -25 -25h-111v-258q0 -26 -25 -25q-25 0 -24 25v258h-133q-18 2 -23 14h-2z" />
<glyph unicode="&#xbf;" horiz-adv-x="658" d="M56 -242.5q-5 112.5 37 172t95 104.5q52 44 95 105t33 204q-1 24 22 24q24 2 24 -22q10 -160 -38 -228.5t-106 -117.5q-46 -40 -83.5 -91t-31.5 -166q10 -79 72 -125q65 -50 159 -50q79 0 134 42q55 44 89 132q8 23 30 12q20 -5 12 -28q-36 -99 -103 -152 q-67 -52 -162 -52q-109 0 -187 59q-86 65 -91 177.5zM281 504q0 26 15 43t37 17t36.5 -17t14.5 -43t-15 -44t-36 -18q-22 0 -37 18t-15 44z" />
<glyph unicode="&#xc0;" horiz-adv-x="808" d="M55 7l326 1002v1q4 10 15 14q20 6 29 -14l326 -1003q7 -20 -15 -27t-29 14l-152 467h-304l-153 -467q-6 -22 -28 -14q-18 6 -15 27zM266 507h275l-139 421zM299 1339q12 19 33 8l169 -102q19 -12 8 -31q-12 -20 -32 -9l-170 103q-19 11 -8 31z" />
<glyph unicode="&#xc1;" horiz-adv-x="808" d="M55 7l326 1002v1q4 10 15 14q20 6 29 -14l326 -1003q7 -20 -15 -27t-29 14l-152 467h-304l-153 -467q-6 -22 -28 -14q-18 6 -15 27zM266 507h275l-139 421zM299 1214q-11 18 8 31l169 102q20 12 33 -8q11 -20 -8 -31l-170 -103q-19 -11 -32 9z" />
<glyph unicode="&#xc2;" horiz-adv-x="808" d="M55 7l326 1002v1q4 10 15 14q20 6 29 -14l326 -1003q7 -20 -15 -27t-29 14l-152 467h-304l-153 -467q-6 -22 -28 -14q-18 6 -15 27zM266 507h275l-139 421zM283 1201q-13 19 4 33l117 90l115 -89q18 -14 5 -33q-15 -15 -31 -3l-89 69l-88 -70q-17 -12 -33 3z" />
<glyph unicode="&#xc3;" horiz-adv-x="808" d="M55 7l326 1002v1q4 10 15 14q20 6 29 -14l326 -1003q7 -20 -15 -27t-29 14l-152 467h-304l-153 -467q-6 -22 -28 -14q-18 6 -15 27zM195 1182q25 33 48.5 57.5t50.5 33.5q60 19 125 -67q23 -33 49 -39q13 -4 26 -1q12 4 28 15q38 28 53 75q6 23 29 18q23 -8 16 -30 q-19 -65 -70 -101q-23 -17 -45 -22q-28 -7 -52 1q-40 12 -72 57q-44 59 -72 49q-17 -5 -36.5 -26t-40.5 -49q-14 -20 -33 -5q-18 16 -4 34zM266 507h275l-139 421z" />
<glyph unicode="&#xc4;" horiz-adv-x="808" d="M55 7l326 1002v1q4 10 15 14q20 6 29 -14l326 -1003q7 -20 -15 -27t-29 14l-152 467h-304l-153 -467q-6 -22 -28 -14q-18 6 -15 27zM266 507h275l-139 421zM274 1276q0 26 14.5 43.5t36.5 17.5t37 -17.5t15 -43.5t-15.5 -43.5t-36.5 -17.5q-22 0 -36.5 17.5t-14.5 43.5z M432 1276q0 26 15 43.5t36 17.5q22 0 37.5 -17.5t15.5 -43.5t-15.5 -43.5t-37.5 -17.5t-36.5 17.5t-14.5 43.5z" />
<glyph unicode="&#xc5;" horiz-adv-x="808" d="M55 7l326 1002v1q4 10 15 14q20 6 29 -14l326 -1003q7 -20 -15 -27t-29 14l-152 467h-304l-153 -467q-6 -22 -28 -14q-18 6 -15 27zM266 507h275l-139 421zM306 1245q0 20 7.5 39t21 32.5t31.5 21.5t38 8t38.5 -8t31.5 -21.5t21 -32t8 -39.5q0 -42 -29 -70.5t-70 -28.5 t-69.5 28.5t-28.5 70.5zM346 1245q0 -24 17.5 -40.5t40.5 -16.5q25 0 42.5 16.5t17.5 40.5q0 25 -17.5 42t-42.5 17q-24 0 -41 -17t-17 -42z" />
<glyph unicode="&#xc6;" horiz-adv-x="933" d="M11 14l479 998q7 15 22 13h2h364q23 0 22 -23q0 -24 -22 -23h-340v-472h340q23 0 22 -24q0 -23 -22 -22h-340v-438h340q23 0 22 -23q0 -23 -22 -23h-364q-23 0 -22 23v461h-217l-223 -466q-8 -20 -30 -10q-20 9 -11 29zM298 507h194v399z" />
<glyph unicode="&#xc7;" horiz-adv-x="700" d="M51 502q0 113 19 211.5t62 171.5q82 140 238 140q94 0 164 -54q68 -53 106 -156q9 -23 -12 -30q-23 -8 -30 14q-36 91 -92 136q-56 44 -136 44q-130 0 -199 -117q-39 -67 -56.5 -160.5t-17.5 -199.5q0 -110 17.5 -202.5t56.5 -158.5q69 -119 199 -118q79 0 136 45 q57 44 92 136q7 20 30 13q21 -10 12 -30q-40 -104 -106 -155q-70 -54 -164 -55q-156 0 -238 141q-43 71 -62 170t-19 214zM323 -313q63 92 84 149q18 50 -5 58q-28 -11 -43.5 -12t-32.5 17q-8 15 1.5 41t19.5 56q2 7 3 16h49q-4 -15 -6 -28q-8 -26 -13 -49q5 5 13 9 q37 22 54 -4q33 -43 4 -122q-22 -60 -87 -156q-14 -19 -33 -8q-17 14 -8 33z" />
<glyph unicode="&#xc8;" horiz-adv-x="562" d="M51 0v483v519q0 23 23 23h414q23 0 23 -23q0 -24 -23 -23h-391v-472h391q23 0 23 -24q0 -23 -23 -22h-391v-438h391q23 0 23 -23t-23 -23h-414q-23 0 -23 23zM176 1339q12 19 33 8l169 -102q19 -12 8 -31q-12 -20 -32 -9l-170 103q-19 11 -8 31z" />
<glyph unicode="&#xc9;" horiz-adv-x="562" d="M51 0v483v519q0 23 23 23h414q23 0 23 -23q0 -24 -23 -23h-391v-472h391q23 0 23 -24q0 -23 -23 -22h-391v-438h391q23 0 23 -23t-23 -23h-414q-23 0 -23 23zM176 1214q-11 18 8 31l169 102q20 12 33 -8q11 -20 -8 -31l-170 -103q-19 -11 -32 9z" />
<glyph unicode="&#xca;" horiz-adv-x="562" d="M51 0v483v519q0 23 23 23h414q23 0 23 -23q0 -24 -23 -23h-391v-472h391q23 0 23 -24q0 -23 -23 -22h-391v-438h391q23 0 23 -23t-23 -23h-414q-23 0 -23 23zM161 1201q-13 19 4 33l117 90l115 -89q18 -14 5 -33q-15 -15 -31 -3l-89 69l-88 -70q-17 -12 -33 3z" />
<glyph unicode="&#xcb;" horiz-adv-x="562" d="M51 0v483v519q0 23 23 23h414q23 0 23 -23q0 -24 -23 -23h-391v-472h391q23 0 23 -24q0 -23 -23 -22h-391v-438h391q23 0 23 -23t-23 -23h-414q-23 0 -23 23zM150 1276q0 26 14.5 43.5t36.5 17.5t37 -17.5t15 -43.5t-15.5 -43.5t-36.5 -17.5q-22 0 -36.5 17.5t-14.5 43.5 zM308 1276q0 26 15 43.5t36 17.5q22 0 37.5 -17.5t15.5 -43.5t-15.5 -43.5t-37.5 -17.5t-36.5 17.5t-14.5 43.5z" />
<glyph unicode="&#xcc;" horiz-adv-x="437" d="M51 0q0 23 23 23h122v956h-122q-23 0 -23 23t23 23h145h145q23 0 22 -23q0 -24 -22 -23h-122v-956h122q23 0 22 -23q0 -23 -22 -23h-145h-145q-23 0 -23 23zM114 1339q12 19 33 8l169 -102q19 -12 8 -31q-12 -20 -32 -9l-170 103q-19 11 -8 31z" />
<glyph unicode="&#xcd;" horiz-adv-x="437" d="M51 0q0 23 23 23h122v956h-122q-23 0 -23 23t23 23h145h145q23 0 22 -23q0 -24 -22 -23h-122v-956h122q23 0 22 -23q0 -23 -22 -23h-145h-145q-23 0 -23 23zM114 1214q-11 18 8 31l169 102q20 12 33 -8q11 -20 -8 -31l-170 -103q-19 -11 -32 9z" />
<glyph unicode="&#xce;" horiz-adv-x="437" d="M51 0q0 23 23 23h122v956h-122q-23 0 -23 23t23 23h145h145q23 0 22 -23q0 -24 -22 -23h-122v-956h122q23 0 22 -23q0 -23 -22 -23h-145h-145q-23 0 -23 23zM98 1201q-13 19 4 33l117 90l115 -89q18 -14 5 -33q-15 -15 -31 -3l-89 69l-88 -70q-17 -12 -33 3z" />
<glyph unicode="&#xcf;" horiz-adv-x="437" d="M51 0q0 23 23 23h122v956h-122q-23 0 -23 23t23 23h145h145q23 0 22 -23q0 -24 -22 -23h-122v-956h122q23 0 22 -23q0 -23 -22 -23h-145h-145q-23 0 -23 23zM87 1276q0 26 14.5 43.5t36.5 17.5t37 -17.5t15 -43.5t-15.5 -43.5t-36.5 -17.5q-22 0 -36.5 17.5t-14.5 43.5z M245 1276q0 26 15 43.5t36 17.5q22 0 37.5 -17.5t15.5 -43.5t-15.5 -43.5t-37.5 -17.5t-36.5 17.5t-14.5 43.5z" />
<glyph unicode="&#xd0;" horiz-adv-x="635" d="M10 490q0 23 24 23h17v489q0 23 23 23h192q156 0 238 -140q43 -73 62 -172t19 -211q0 -115 -19 -214.5t-62 -169.5q-82 -140 -238 -141h-192q-23 0 -23 23v466h-17q-25 0 -24 24zM97 23h169q129 0 199 118q39 66 56.5 158.5t17.5 202.5q0 106 -17.5 200t-56.5 160 q-70 117 -199 117h-169v-466h326q23 -1 22 -26q1 -23 -22 -22l-326 1v-443z" />
<glyph unicode="&#xd1;" horiz-adv-x="658" d="M51 0v1002v2q0 13 12 18q20 10 31 -9l467 -918v907q0 23 23 23t23 -23v-1002q0 -23 -23 -23q-14 0 -21 15l-466 915v-907q0 -23 -23 -23t-23 23zM121 1182q25 33 48.5 57.5t50.5 33.5q60 19 125 -67q23 -33 49 -39q13 -4 26 -1q12 4 28 15q38 28 53 75q6 23 29 18 q23 -8 16 -30q-19 -65 -70 -101q-23 -17 -45 -22q-28 -7 -52 1q-40 12 -72 57q-44 59 -72 49q-17 -5 -36.5 -26t-40.5 -49q-14 -20 -33 -5q-18 16 -4 34z" />
<glyph unicode="&#xd2;" horiz-adv-x="739" d="M51 502q0 113 19 211.5t62 171.5q82 140 238 140q155 0 238 -140q41 -73 60.5 -172t19.5 -211q0 -115 -19.5 -214.5t-60.5 -169.5q-85 -140 -238 -141q-156 0 -238 141q-43 71 -62 170t-19 214zM97 502q0 -110 17.5 -202.5t56.5 -158.5q69 -119 199 -118q129 0 198 118 q38 66 56.5 158.5t18.5 202.5q0 106 -18.5 199.5t-56.5 160.5q-70 117 -198 117q-130 0 -199 -117q-39 -67 -56.5 -160.5t-17.5 -199.5zM264 1339q12 19 33 8l169 -102q19 -12 8 -31q-12 -20 -32 -9l-170 103q-19 11 -8 31z" />
<glyph unicode="&#xd3;" horiz-adv-x="739" d="M51 502q0 113 19 211.5t62 171.5q82 140 238 140q155 0 238 -140q41 -73 60.5 -172t19.5 -211q0 -115 -19.5 -214.5t-60.5 -169.5q-85 -140 -238 -141q-156 0 -238 141q-43 71 -62 170t-19 214zM97 502q0 -110 17.5 -202.5t56.5 -158.5q69 -119 199 -118q129 0 198 118 q38 66 56.5 158.5t18.5 202.5q0 106 -18.5 199.5t-56.5 160.5q-70 117 -198 117q-130 0 -199 -117q-39 -67 -56.5 -160.5t-17.5 -199.5zM264 1214q-11 18 8 31l169 102q20 12 33 -8q11 -20 -8 -31l-170 -103q-19 -11 -32 9z" />
<glyph unicode="&#xd4;" horiz-adv-x="739" d="M51 502q0 113 19 211.5t62 171.5q82 140 238 140q155 0 238 -140q41 -73 60.5 -172t19.5 -211q0 -115 -19.5 -214.5t-60.5 -169.5q-85 -140 -238 -141q-156 0 -238 141q-43 71 -62 170t-19 214zM97 502q0 -110 17.5 -202.5t56.5 -158.5q69 -119 199 -118q129 0 198 118 q38 66 56.5 158.5t18.5 202.5q0 106 -18.5 199.5t-56.5 160.5q-70 117 -198 117q-130 0 -199 -117q-39 -67 -56.5 -160.5t-17.5 -199.5zM249 1201q-13 19 4 33l117 90l115 -89q18 -14 5 -33q-15 -15 -31 -3l-89 69l-88 -70q-17 -12 -33 3z" />
<glyph unicode="&#xd5;" horiz-adv-x="739" d="M51 502q0 113 19 211.5t62 171.5q82 140 238 140q155 0 238 -140q41 -73 60.5 -172t19.5 -211q0 -115 -19.5 -214.5t-60.5 -169.5q-85 -140 -238 -141q-156 0 -238 141q-43 71 -62 170t-19 214zM97 502q0 -110 17.5 -202.5t56.5 -158.5q69 -119 199 -118q129 0 198 118 q38 66 56.5 158.5t18.5 202.5q0 106 -18.5 199.5t-56.5 160.5q-70 117 -198 117q-130 0 -199 -117q-39 -67 -56.5 -160.5t-17.5 -199.5zM161 1182q25 33 48.5 57.5t50.5 33.5q60 19 125 -67q23 -33 49 -39q13 -4 26 -1q12 4 28 15q38 28 53 75q6 23 29 18q23 -8 16 -30 q-19 -65 -70 -101q-23 -17 -45 -22q-28 -7 -52 1q-40 12 -72 57q-44 59 -72 49q-17 -5 -36.5 -26t-40.5 -49q-14 -20 -33 -5q-18 16 -4 34z" />
<glyph unicode="&#xd6;" horiz-adv-x="739" d="M51 502q0 113 19 211.5t62 171.5q82 140 238 140q155 0 238 -140q41 -73 60.5 -172t19.5 -211q0 -115 -19.5 -214.5t-60.5 -169.5q-85 -140 -238 -141q-156 0 -238 141q-43 71 -62 170t-19 214zM97 502q0 -110 17.5 -202.5t56.5 -158.5q69 -119 199 -118q129 0 198 118 q38 66 56.5 158.5t18.5 202.5q0 106 -18.5 199.5t-56.5 160.5q-70 117 -198 117q-130 0 -199 -117q-39 -67 -56.5 -160.5t-17.5 -199.5zM239 1276q0 26 14.5 43.5t36.5 17.5t37 -17.5t15 -43.5t-15.5 -43.5t-36.5 -17.5q-22 0 -36.5 17.5t-14.5 43.5zM397 1276q0 26 15 43.5 t36 17.5q22 0 37.5 -17.5t15.5 -43.5t-15.5 -43.5t-37.5 -17.5t-36.5 17.5t-14.5 43.5z" />
<glyph unicode="&#xd7;" horiz-adv-x="427" d="M57 486q-15 16 2 34q16 17 32 0l121 -121l122 122q16 15 34 -2q17 -17 0 -32l-122 -122l120 -120q17 -17 -1 -34q-15 -16 -32 0l-121 121l-120 -119q-17 -17 -34 1q-16 15 0 32l120 120z" />
<glyph unicode="&#xd8;" horiz-adv-x="739" d="M51 502q0 113 19 211.5t62 171.5q82 140 238 140q155 0 238 -140q41 -73 60.5 -172t19.5 -211q0 -115 -19.5 -214.5t-60.5 -169.5q-85 -140 -238 -141q-156 0 -238 141q-43 71 -62 170t-19 214zM97 502q0 -110 17.5 -202.5t56.5 -158.5q69 -119 199 -118q129 0 198 118 q38 66 56.5 158.5t18.5 202.5q0 106 -18.5 199.5t-56.5 160.5q-70 117 -198 117q-130 0 -199 -117q-39 -67 -56.5 -160.5t-17.5 -199.5zM112 34l472 978q10 20 31 10q20 -11 11 -31l-473 -977q-9 -20 -30 -10q-20 9 -11 30z" />
<glyph unicode="&#xd9;" horiz-adv-x="739" d="M51 403v599q0 23 23 23q24 0 23 -23v-599q0 -186 72 -285q70 -95 201 -95q129 0 199 95q74 99 74 285v599q0 23 22 23q24 0 23 -23v-599q0 -92 -19.5 -173.5t-62.5 -138.5q-83 -114 -236 -114q-155 0 -237 114q-44 57 -63 138.5t-19 173.5zM264 1339q12 19 33 8l169 -102 q19 -12 8 -31q-12 -20 -32 -9l-170 103q-19 11 -8 31z" />
<glyph unicode="&#xda;" horiz-adv-x="739" d="M51 403v599q0 23 23 23q24 0 23 -23v-599q0 -186 72 -285q70 -95 201 -95q129 0 199 95q74 99 74 285v599q0 23 22 23q24 0 23 -23v-599q0 -92 -19.5 -173.5t-62.5 -138.5q-83 -114 -236 -114q-155 0 -237 114q-44 57 -63 138.5t-19 173.5zM264 1214q-11 18 8 31l169 102 q20 12 33 -8q11 -20 -8 -31l-170 -103q-19 -11 -32 9z" />
<glyph unicode="&#xdb;" horiz-adv-x="739" d="M51 403v599q0 23 23 23q24 0 23 -23v-599q0 -186 72 -285q70 -95 201 -95q129 0 199 95q74 99 74 285v599q0 23 22 23q24 0 23 -23v-599q0 -92 -19.5 -173.5t-62.5 -138.5q-83 -114 -236 -114q-155 0 -237 114q-44 57 -63 138.5t-19 173.5zM249 1201q-13 19 4 33l117 90 l115 -89q18 -14 5 -33q-15 -15 -31 -3l-89 69l-88 -70q-17 -12 -33 3z" />
<glyph unicode="&#xdc;" horiz-adv-x="739" d="M51 403v599q0 23 23 23q24 0 23 -23v-599q0 -186 72 -285q70 -95 201 -95q129 0 199 95q74 99 74 285v599q0 23 22 23q24 0 23 -23v-599q0 -92 -19.5 -173.5t-62.5 -138.5q-83 -114 -236 -114q-155 0 -237 114q-44 57 -63 138.5t-19 173.5zM239 1276q0 26 14.5 43.5 t36.5 17.5t37 -17.5t15 -43.5t-15.5 -43.5t-36.5 -17.5q-22 0 -36.5 17.5t-14.5 43.5zM397 1276q0 26 15 43.5t36 17.5q22 0 37.5 -17.5t15.5 -43.5t-15.5 -43.5t-37.5 -17.5t-36.5 17.5t-14.5 43.5z" />
<glyph unicode="&#xdd;" horiz-adv-x="654" d="M59 992q-8 20 11 30t30 -9l226 -461l226 461q11 19 31 9q20 -9 10 -30l-244 -495v-497q0 -23 -23 -23t-23 23v497zM222 1214q-11 18 8 31l169 102q20 12 33 -8q11 -20 -8 -31l-170 -103q-19 -11 -32 9z" />
<glyph unicode="&#xde;" horiz-adv-x="590" d="M48 1006q0 23 24 22q23 0 22 -22v-224h151q139 0 217 -70q78 -74 78 -203q0 -131 -78 -203q-78 -71 -217 -70h-150v-236q0 -23 -23 -23t-23 23zM95 282h150q122 0 185 58t64 169q0 111 -64 169q-63 58 -185 58q-2 0 -2 1h-148v-455z" />
<glyph unicode="&#xdf;" horiz-adv-x="520" d="M51 0v733q2 148 57.5 217.5t157.5 69.5q103 0 153.5 -71t50.5 -175q0 -85 -35.5 -148t-74.5 -80q41 -17 65 -45q68 -69 68 -233q0 -151 -47.5 -219.5t-128.5 -71.5q-52 0 -93 33.5t-60 99.5q-8 23 13.5 29.5t29.5 -13.5q12 -50 41.5 -76t68.5 -26q46 0 87.5 55.5 t41.5 188.5q0 147 -57 204q-53 54 -135 54q-26 0 -28 22t28 23q94 1 132 67.5t38 135.5q0 88 -38 144t-120 56t-125 -55.5t-44 -185.5v-733q0 -23 -23 -23t-23 23z" />
<glyph unicode="&#xe0;" d="M51 242q0 125 55 193q57 72 160 72t161 -72q7 -8 9 -12v60q0 24 23 24t23 -24v-241v-242q0 -23 -23 -23t-23 23v61q-2 -4 -9 -13q-56 -71 -161 -71q-102 0 -160 71q-55 69 -55 194zM97 242q0 -109 45 -165q42 -54 124 -54t125 54q45 56 45 165q0 108 -45 166 q-43 53 -125 53t-124 -53q-45 -58 -45 -166zM162 827q12 19 33 8l169 -102q19 -12 8 -31q-12 -20 -32 -9l-170 103q-19 11 -8 31z" />
<glyph unicode="&#xe1;" d="M51 242q0 125 55 193q57 72 160 72t161 -72q7 -8 9 -12v60q0 24 23 24t23 -24v-241v-242q0 -23 -23 -23t-23 23v61q-2 -4 -9 -13q-56 -71 -161 -71q-102 0 -160 71q-55 69 -55 194zM97 242q0 -109 45 -165q42 -54 124 -54t125 54q45 56 45 165q0 108 -45 166 q-43 53 -125 53t-124 -53q-45 -58 -45 -166zM162 702q-11 18 8 31l169 102q20 12 33 -8q11 -20 -8 -31l-170 -103q-19 -11 -32 9z" />
<glyph unicode="&#xe2;" d="M51 242q0 125 55 193q57 72 160 72t161 -72q7 -8 9 -12v60q0 24 23 24t23 -24v-241v-242q0 -23 -23 -23t-23 23v61q-2 -4 -9 -13q-56 -71 -161 -71q-102 0 -160 71q-55 69 -55 194zM97 242q0 -109 45 -165q42 -54 124 -54t125 54q45 56 45 165q0 108 -45 166 q-43 53 -125 53t-124 -53q-45 -58 -45 -166zM146 689q-13 19 4 33l117 90l115 -89q18 -14 5 -33q-15 -15 -31 -3l-89 69l-88 -70q-17 -12 -33 3z" />
<glyph unicode="&#xe3;" d="M51 242q0 125 55 193q57 72 160 72t161 -72q7 -8 9 -12v60q0 24 23 24t23 -24v-241v-242q0 -23 -23 -23t-23 23v61q-2 -4 -9 -13q-56 -71 -161 -71q-102 0 -160 71q-55 69 -55 194zM58 670q25 33 48.5 57.5t50.5 33.5q60 19 125 -67q23 -33 49 -39q13 -4 26 -1 q12 4 28 15q38 28 53 75q6 23 29 18q23 -8 16 -30q-19 -65 -70 -101q-23 -17 -45 -22q-28 -7 -52 1q-40 12 -72 57q-44 59 -72 49q-17 -5 -36.5 -26t-40.5 -49q-14 -20 -33 -5q-18 16 -4 34zM97 242q0 -109 45 -165q42 -54 124 -54t125 54q45 56 45 165q0 108 -45 166 q-43 53 -125 53t-124 -53q-45 -58 -45 -166z" />
<glyph unicode="&#xe4;" d="M51 242q0 125 55 193q57 72 160 72t161 -72q7 -8 9 -12v60q0 24 23 24t23 -24v-241v-242q0 -23 -23 -23t-23 23v61q-2 -4 -9 -13q-56 -71 -161 -71q-102 0 -160 71q-55 69 -55 194zM97 242q0 -109 45 -165q42 -54 124 -54t125 54q45 56 45 165q0 108 -45 166 q-43 53 -125 53t-124 -53q-45 -58 -45 -166zM136 764q0 26 14.5 43.5t36.5 17.5t37 -17.5t15 -43.5t-15.5 -43.5t-36.5 -17.5q-22 0 -36.5 17.5t-14.5 43.5zM294 764q0 26 15 43.5t36 17.5q22 0 37.5 -17.5t15.5 -43.5t-15.5 -43.5t-37.5 -17.5t-36.5 17.5t-14.5 43.5z" />
<glyph unicode="&#xe5;" d="M51 242q0 125 55 193q57 72 160 72t161 -72q7 -8 9 -12v60q0 24 23 24t23 -24v-241v-242q0 -23 -23 -23t-23 23v61q-2 -4 -9 -13q-56 -71 -161 -71q-102 0 -160 71q-55 69 -55 194zM97 242q0 -109 45 -165q42 -54 124 -54t125 54q45 56 45 165q0 108 -45 166 q-43 53 -125 53t-124 -53q-45 -58 -45 -166zM171 733q0 20 7.5 39t21 32.5t31.5 21.5t38 8t38.5 -8t31.5 -21.5t21 -32t8 -39.5q0 -42 -29 -70.5t-70 -28.5t-69.5 28.5t-28.5 70.5zM211 733q0 -24 17.5 -40.5t40.5 -16.5q25 0 42.5 16.5t17.5 40.5q0 25 -17.5 42t-42.5 17 q-24 0 -41 -17t-17 -42z" />
<glyph unicode="&#xe6;" horiz-adv-x="909" d="M38.5 122.5q-32.5 139.5 151.5 142.5l246 -1q-5 92 -45 143q-42 54 -124 54q-56 0 -94 -26t-57 -77q-8 -22 -30 -12q-20 7 -13 29q27 66 74 98q50 33 120 33q102 0 160 -71q20 -26 32 -55q13 31 33 55q57 72 159 72q103 0 161 -72q55 -71 55 -193q0 -23 -23 -23h-362 q5 -92 45 -142q42 -54 124 -54q56 0 94 25q38 26 58 77q8 22 30 12q20 -7 13 -28q-27 -66 -75 -99q-50 -33 -120 -33q-102 0 -159 71q-20 25 -33 54q-13 -31 -32 -54q-57 -72 -172 -72q-184 7 -216.5 146.5zM80.5 129.5q15.5 -96.5 174.5 -106.5q94 0 136 53q40 51 43 145 l-244 2q-125 3 -109.5 -93.5zM482 264h339q-6 92 -45 144q-43 53 -125 53t-124 -53q-40 -51 -45 -144z" />
<glyph unicode="&#xe7;" horiz-adv-x="520" d="M51 242q0 125 55 193q57 72 160 72q69 0 120 -35q48 -32 75 -97q8 -23 -14 -30t-29 13q-19 50 -58 77q-38 26 -94 26q-82 0 -124 -53q-45 -58 -45 -166q0 -109 45 -165q42 -54 124 -54q56 0 94 25q38 26 58 77q8 22 29 12q21 -6 14 -28q-27 -66 -75 -99q-50 -33 -120 -33 q-102 0 -160 71q-55 69 -55 194zM225 -317q63 92 84 149q18 50 -5 58q-28 -11 -43.5 -12t-32.5 17q-8 15 1.5 41t19.5 56q2 7 3 16h49q-4 -15 -6 -28q-8 -26 -13 -49q5 5 13 9q37 22 54 -4q33 -43 4 -122q-22 -60 -87 -156q-14 -19 -33 -8q-17 14 -8 33z" />
<glyph unicode="&#xe8;" horiz-adv-x="483" d="M3 242q0 125 55 193q57 72 160 72t161 -72q55 -71 55 -193q0 -23 -23 -23h-362q5 -92 45 -142q42 -54 124 -54q56 0 94 25q38 26 58 77q8 22 29 12q21 -6 14 -28q-27 -66 -75 -99q-50 -33 -120 -33q-102 0 -160 71q-33 40 -44 91.5t-11 102.5zM49 264h339q-6 92 -45 144 q-43 53 -125 53t-124 -53q-40 -51 -45 -144zM136 827q12 19 33 8l169 -102q19 -12 8 -31q-12 -20 -32 -9l-170 103q-19 11 -8 31z" />
<glyph unicode="&#xe9;" horiz-adv-x="483" d="M3 242q0 125 55 193q57 72 160 72t161 -72q55 -71 55 -193q0 -23 -23 -23h-362q5 -92 45 -142q42 -54 124 -54q56 0 94 25q38 26 58 77q8 22 29 12q21 -6 14 -28q-27 -66 -75 -99q-50 -33 -120 -33q-102 0 -160 71q-33 40 -44 91.5t-11 102.5zM49 264h339q-6 92 -45 144 q-43 53 -125 53t-124 -53q-40 -51 -45 -144zM136 702q-11 18 8 31l169 102q20 12 33 -8q11 -20 -8 -31l-170 -103q-19 -11 -32 9z" />
<glyph unicode="&#xea;" horiz-adv-x="483" d="M3 242q0 125 55 193q57 72 160 72t161 -72q55 -71 55 -193q0 -23 -23 -23h-362q5 -92 45 -142q42 -54 124 -54q56 0 94 25q38 26 58 77q8 22 29 12q21 -6 14 -28q-27 -66 -75 -99q-50 -33 -120 -33q-102 0 -160 71q-33 40 -44 91.5t-11 102.5zM49 264h339q-6 92 -45 144 q-43 53 -125 53t-124 -53q-40 -51 -45 -144zM121 689q-13 19 4 33l117 90l115 -89q18 -14 5 -33q-15 -15 -31 -3l-89 69l-88 -70q-17 -12 -33 3z" />
<glyph unicode="&#xeb;" horiz-adv-x="483" d="M3 242q0 125 55 193q57 72 160 72t161 -72q55 -71 55 -193q0 -23 -23 -23h-362q5 -92 45 -142q42 -54 124 -54q56 0 94 25q38 26 58 77q8 22 29 12q21 -6 14 -28q-27 -66 -75 -99q-50 -33 -120 -33q-102 0 -160 71q-33 40 -44 91.5t-11 102.5zM49 264h339q-6 92 -45 144 q-43 53 -125 53t-124 -53q-40 -51 -45 -144zM111 764q0 26 14.5 43.5t36.5 17.5t37 -17.5t15 -43.5t-15.5 -43.5t-36.5 -17.5q-22 0 -36.5 17.5t-14.5 43.5zM269 764q0 26 15 43.5t36 17.5q22 0 37.5 -17.5t15.5 -43.5t-15.5 -43.5t-37.5 -17.5t-36.5 17.5t-14.5 43.5z" />
<glyph unicode="&#xec;" horiz-adv-x="148" d="M-31 827q12 19 33 8l169 -102q19 -12 8 -31q-12 -20 -32 -9l-170 103q-19 11 -8 31zM51 0v483q0 24 23 24t23 -24v-483q0 -23 -23 -23t-23 23z" />
<glyph unicode="&#xed;" horiz-adv-x="148" d="M-31 702q-11 18 8 31l169 102q20 12 33 -8q11 -20 -8 -31l-170 -103q-19 -11 -32 9zM51 0v483q0 24 23 24t23 -24v-483q0 -23 -23 -23t-23 23z" />
<glyph unicode="&#xee;" horiz-adv-x="148" d="M-46 689q-13 19 4 33l117 90l114 -89q18 -14 6 -33q-15 -15 -31 -3l-89 69l-88 -70q-17 -12 -33 3zM51 0v483q0 24 23 24t23 -24v-483q0 -23 -23 -23t-23 23z" />
<glyph unicode="&#xef;" horiz-adv-x="148" d="M-56 764q0 26 14.5 43.5t36.5 17.5t37 -17.5t15 -43.5t-15.5 -43.5t-36.5 -17.5q-22 0 -36.5 17.5t-14.5 43.5zM51 0v483q0 24 23 24t23 -24v-483q0 -23 -23 -23t-23 23zM102 764q0 26 15 43.5t37 17.5t37 -17.5t15 -43.5t-15.5 -43.5t-36.5 -17.5q-22 0 -37 17.5 t-15 43.5z" />
<glyph unicode="&#xf0;" horiz-adv-x="534" d="M51 242q0 125 55 193q57 72 160 72q25 0 46 -4l-83 103l-52 -49q-16 -16 -33 0q-15 17 2 34l54 51l-64 80q-16 16 1 33q17 15 33 -2l63 -79l56 53q16 15 32 0q16 -17 0 -34l-59 -55l165 -203q55 -71 55 -193q0 -124 -55 -194q-56 -71 -161 -71q-102 0 -160 71 q-55 69 -55 194zM97 242q0 -109 45 -165q42 -54 124 -54t125 54q45 56 45 165q0 108 -45 166l-12 13q-42 40 -113 40q-82 0 -124 -53q-45 -58 -45 -166z" />
<glyph unicode="&#xf1;" d="M51 0v242v241q0 24 23 24q24 0 23 -24v-60q2 4 9 12q57 72 160 72t161 -72q55 -71 55 -193v-242q0 -23 -23 -23t-23 23v242q0 108 -45 166q-43 53 -125 53t-124 -53q-45 -58 -45 -166v-242q0 -23 -23 -23t-23 23zM58 670q25 33 48.5 57.5t50.5 33.5q60 19 125 -67 q23 -33 49 -39q13 -4 26 -1q12 4 28 15q38 28 53 75q6 23 29 18q23 -8 16 -30q-19 -65 -70 -101q-23 -17 -45 -22q-28 -7 -52 1q-40 12 -72 57q-44 59 -72 49q-17 -5 -36.5 -26t-40.5 -49q-14 -20 -33 -5q-18 16 -4 34z" />
<glyph unicode="&#xf2;" horiz-adv-x="534" d="M51 242q0 124 55 193q57 72 160 72t161 -72q55 -71 55 -193q0 -124 -55 -194q-56 -71 -161 -71q-102 0 -160 71q-55 69 -55 194zM97 242q0 -109 45 -165q42 -54 124 -54t125 54q45 56 45 165q0 108 -45 166q-43 53 -125 53t-124 -53q-45 -58 -45 -166zM162 827 q12 19 33 8l169 -102q19 -12 8 -31q-12 -20 -32 -9l-170 103q-19 11 -8 31z" />
<glyph unicode="&#xf3;" horiz-adv-x="534" d="M51 242q0 124 55 193q57 72 160 72t161 -72q55 -71 55 -193q0 -124 -55 -194q-56 -71 -161 -71q-102 0 -160 71q-55 69 -55 194zM97 242q0 -109 45 -165q42 -54 124 -54t125 54q45 56 45 165q0 108 -45 166q-43 53 -125 53t-124 -53q-45 -58 -45 -166zM162 702 q-11 18 8 31l169 102q20 12 33 -8q11 -20 -8 -31l-170 -103q-19 -11 -32 9z" />
<glyph unicode="&#xf4;" horiz-adv-x="534" d="M51 242q0 124 55 193q57 72 160 72t161 -72q55 -71 55 -193q0 -124 -55 -194q-56 -71 -161 -71q-102 0 -160 71q-55 69 -55 194zM97 242q0 -109 45 -165q42 -54 124 -54t125 54q45 56 45 165q0 108 -45 166q-43 53 -125 53t-124 -53q-45 -58 -45 -166zM146 689 q-13 19 4 33l117 90l115 -89q18 -14 5 -33q-15 -15 -31 -3l-89 69l-88 -70q-17 -12 -33 3z" />
<glyph unicode="&#xf5;" horiz-adv-x="534" d="M51 242q0 124 55 193q57 72 160 72t161 -72q55 -71 55 -193q0 -124 -55 -194q-56 -71 -161 -71q-102 0 -160 71q-55 69 -55 194zM58 670q25 33 48.5 57.5t50.5 33.5q60 19 125 -67q23 -33 49 -39q13 -4 26 -1q12 4 28 15q38 28 53 75q6 23 29 18q23 -8 16 -30 q-19 -65 -70 -101q-23 -17 -45 -22q-28 -7 -52 1q-40 12 -72 57q-44 59 -72 49q-17 -5 -36.5 -26t-40.5 -49q-14 -20 -33 -5q-18 16 -4 34zM97 242q0 -109 45 -165q42 -54 124 -54t125 54q45 56 45 165q0 108 -45 166q-43 53 -125 53t-124 -53q-45 -58 -45 -166z" />
<glyph unicode="&#xf6;" horiz-adv-x="534" d="M51 242q0 124 55 193q57 72 160 72t161 -72q55 -71 55 -193q0 -124 -55 -194q-56 -71 -161 -71q-102 0 -160 71q-55 69 -55 194zM97 242q0 -109 45 -165q42 -54 124 -54t125 54q45 56 45 165q0 108 -45 166q-43 53 -125 53t-124 -53q-45 -58 -45 -166zM137 764 q0 26 14.5 43.5t36.5 17.5t37 -17.5t15 -43.5t-15.5 -43.5t-36.5 -17.5q-22 0 -36.5 17.5t-14.5 43.5zM295 764q0 26 15 43.5t36 17.5q22 0 37.5 -17.5t15.5 -43.5t-15.5 -43.5t-37.5 -17.5t-36.5 17.5t-14.5 43.5z" />
<glyph unicode="&#xf7;" horiz-adv-x="649" d="M109 368q0 23 23 22h389q23 -1 23 -25t-23 -23l-389 1q-25 0 -23 25zM273 153q0 26 15 43.5t37 17.5t37 -18t15 -43q0 -26 -15.5 -43.5t-36.5 -17.5q-22 0 -37 17.5t-15 43.5zM273 568q0 26 15 44t37 18t37 -18t15 -44t-15.5 -43t-36.5 -17q-22 0 -37 17t-15 43z" />
<glyph unicode="&#xf8;" horiz-adv-x="534" d="M22 -1q-16 15 0 32l58 59q-29 61 -29 152q0 124 55 193q57 72 160 72q98 0 156 -66l57 60q16 15 33 0q15 -16 0 -33l-65 -66q35 -65 35 -160q0 -124 -55 -194q-56 -71 -161 -71q-102 0 -160 71l-2 2l-50 -51q-15 -16 -32 0zM97 242q0 -69 18 -116l275 283q-43 52 -124 52 q-82 0 -124 -53q-45 -58 -45 -166zM136 84q3 -4 6 -7q42 -54 124 -54t125 54q45 56 45 165q0 75 -22 126z" />
<glyph unicode="&#xf9;" d="M51 242v241q0 24 23 24q24 0 23 -24v-241q0 -109 45 -165q42 -54 124 -54t125 54q45 56 45 165v241q0 24 23 24q24 0 23 -24v-241v-242q0 -23 -23 -23t-23 23v61q-2 -4 -9 -13q-56 -71 -161 -71q-102 0 -160 71q-55 69 -55 194zM162 827q12 19 33 8l169 -102 q19 -12 8 -31q-12 -20 -32 -9l-170 103q-19 11 -8 31z" />
<glyph unicode="&#xfa;" d="M51 242v241q0 24 23 24q24 0 23 -24v-241q0 -109 45 -165q42 -54 124 -54t125 54q45 56 45 165v241q0 24 23 24q24 0 23 -24v-241v-242q0 -23 -23 -23t-23 23v61q-2 -4 -9 -13q-56 -71 -161 -71q-102 0 -160 71q-55 69 -55 194zM162 702q-11 18 8 31l169 102q20 12 33 -8 q11 -20 -8 -31l-170 -103q-19 -11 -32 9z" />
<glyph unicode="&#xfb;" d="M51 242v241q0 24 23 24q24 0 23 -24v-241q0 -109 45 -165q42 -54 124 -54t125 54q45 56 45 165v241q0 24 23 24q24 0 23 -24v-241v-242q0 -23 -23 -23t-23 23v61q-2 -4 -9 -13q-56 -71 -161 -71q-102 0 -160 71q-55 69 -55 194zM146 689q-13 19 4 33l117 90l115 -89 q18 -14 5 -33q-15 -15 -31 -3l-89 69l-88 -70q-17 -12 -33 3z" />
<glyph unicode="&#xfc;" d="M51 242v241q0 24 23 24q24 0 23 -24v-241q0 -109 45 -165q42 -54 124 -54t125 54q45 56 45 165v241q0 24 23 24q24 0 23 -24v-241v-242q0 -23 -23 -23t-23 23v61q-2 -4 -9 -13q-56 -71 -161 -71q-102 0 -160 71q-55 69 -55 194zM136 764q0 26 14.5 43.5t36.5 17.5 t37 -17.5t15 -43.5t-15.5 -43.5t-36.5 -17.5q-22 0 -36.5 17.5t-14.5 43.5zM294 764q0 26 15 43.5t36 17.5q22 0 37.5 -17.5t15.5 -43.5t-15.5 -43.5t-37.5 -17.5t-36.5 17.5t-14.5 43.5z" />
<glyph unicode="&#xfd;" horiz-adv-x="600" d="M59 474q-8 20 12 30q19 9 29 -11l200 -438l198 438q8 19 30 11q21 -11 12 -30l-436 -959q-9 -19 -30 -12q-20 10 -12 30l212 467zM194 702q-11 18 8 31l169 102q20 12 33 -8q11 -20 -8 -31l-170 -103q-19 -11 -32 9z" />
<glyph unicode="&#xfe;" d="M51 242v746q0 24 23 24t23 -24v-565q2 4 9 12q57 72 160 72t161 -72q55 -71 55 -193q0 -124 -55 -194q-56 -71 -161 -71q-102 0 -160 71q-7 9 -9 13v-537q0 -23 -23 -23t-23 23v718zM97 242q0 -109 45 -165q42 -54 124 -54t125 54q45 56 45 165q0 108 -45 166 q-43 53 -125 53t-124 -53q-45 -58 -45 -166z" />
<glyph unicode="&#xff;" horiz-adv-x="600" d="M59 474q-8 20 12 30q19 9 29 -11l200 -438l198 438q8 19 30 11q21 -11 12 -30l-436 -959q-9 -19 -30 -12q-20 10 -12 30l212 467zM169 764q0 26 14.5 43.5t36.5 17.5t37 -17.5t15 -43.5t-15.5 -43.5t-36.5 -17.5q-22 0 -36.5 17.5t-14.5 43.5zM327 764q0 26 15 43.5 t36 17.5q22 0 37.5 -17.5t15.5 -43.5t-15.5 -43.5t-37.5 -17.5t-36.5 17.5t-14.5 43.5z" />
<glyph unicode="&#x152;" horiz-adv-x="939" d="M51 502q0 113 19 211.5t62 171.5q82 140 238 140q73 0 130 -32v9q0 23 22 23h332q23 0 23 -23q0 -24 -23 -23h-308v-472h308q23 0 23 -24q0 -23 -23 -22h-308v-438h308q23 0 23 -23t-23 -23h-332q-23 0 -22 23v8q-57 -31 -130 -31q-156 0 -238 141q-43 71 -62 170 t-19 214zM97 502q0 -110 17.5 -202.5t56.5 -158.5q69 -119 199 -118q75 0 130 39v879l-1 -1q-55 39 -129 39q-130 0 -199 -117q-39 -67 -56.5 -160.5t-17.5 -199.5z" />
<glyph unicode="&#x153;" horiz-adv-x="918" d="M51 242q0 124 55 193q57 72 160 72t161 -72q55 -71 55 -193q0 -124 -55 -194q-56 -71 -161 -71q-102 0 -160 71q-55 69 -55 194zM97 242q0 -109 45 -165q42 -54 124 -54t125 54q45 56 45 165q0 108 -45 166q-43 53 -125 53t-124 -53q-45 -58 -45 -166zM436 242 q0 125 56 193q57 72 159 72q103 0 161 -72q55 -71 55 -193q0 -23 -23 -23h-362q5 -92 45 -142q42 -54 124 -54q56 0 94 25q38 26 58 77q8 22 30 12q20 -6 13 -28q-27 -66 -75 -99q-50 -33 -120 -33q-102 0 -159 71q-33 40 -44.5 91.5t-11.5 102.5zM482 264h339 q-6 92 -45 144q-43 53 -125 53t-124 -53q-40 -51 -45 -144z" />
<glyph unicode="&#x178;" horiz-adv-x="654" d="M59 992q-8 20 11 30t30 -9l226 -461l226 461q11 19 31 9q20 -9 10 -30l-244 -495v-497q0 -23 -23 -23t-23 23v497zM196 1276q0 26 14.5 43.5t36.5 17.5t37 -17.5t15 -43.5t-15.5 -43.5t-36.5 -17.5q-22 0 -36.5 17.5t-14.5 43.5zM354 1276q0 26 15 43.5t36 17.5 q22 0 37.5 -17.5t15.5 -43.5t-15.5 -43.5t-37.5 -17.5t-36.5 17.5t-14.5 43.5z" />
<glyph unicode="&#x2c6;" horiz-adv-x="330" d="M53 689q-13 19 4 33l117 90l115 -89q18 -14 5 -33q-15 -15 -31 -3l-89 69l-88 -70q-17 -12 -33 3z" />
<glyph unicode="&#x2dc;" horiz-adv-x="456" d="M5 670q25 33 48.5 57.5t50.5 33.5q60 19 125 -67q23 -33 49 -39q13 -4 26 -1q12 4 28 15q38 28 53 75q6 23 29 18q23 -8 16 -30q-19 -65 -70 -101q-23 -17 -45 -22q-28 -7 -52 1q-40 12 -72 57q-44 59 -72 49q-17 -5 -36.5 -26t-40.5 -49q-14 -20 -33 -5q-18 16 -4 34z " />
<glyph unicode="&#x2000;" horiz-adv-x="682" />
<glyph unicode="&#x2001;" horiz-adv-x="1365" />
<glyph unicode="&#x2002;" horiz-adv-x="682" />
<glyph unicode="&#x2003;" horiz-adv-x="1365" />
<glyph unicode="&#x2004;" horiz-adv-x="455" />
<glyph unicode="&#x2005;" horiz-adv-x="341" />
<glyph unicode="&#x2006;" horiz-adv-x="227" />
<glyph unicode="&#x2007;" horiz-adv-x="227" />
<glyph unicode="&#x2008;" horiz-adv-x="170" />
<glyph unicode="&#x2009;" horiz-adv-x="273" />
<glyph unicode="&#x200a;" horiz-adv-x="75" />
<glyph unicode="&#x2010;" horiz-adv-x="649" d="M109 368q0 23 23 22h389q23 -1 23 -25t-23 -23l-389 1q-25 0 -23 25z" />
<glyph unicode="&#x2011;" horiz-adv-x="649" d="M109 368q0 23 23 22h389q23 -1 23 -25t-23 -23l-389 1q-25 0 -23 25z" />
<glyph unicode="&#x2012;" horiz-adv-x="649" d="M109 368q0 23 23 22h389q23 -1 23 -25t-23 -23l-389 1q-25 0 -23 25z" />
<glyph unicode="&#x2013;" horiz-adv-x="555" d="M38 368q-1 23 23 22h425q22 -1 23 -25q0 -24 -24 -23l-424 1q-25 0 -23 25z" />
<glyph unicode="&#x2014;" horiz-adv-x="669" d="M38 368q-1 23 23 22h552q23 -1 23 -25t-23 -23l-552 1q-25 0 -23 25z" />
<glyph unicode="&#x2018;" horiz-adv-x="388" d="M142 865q22 61 87 159q13 19 33 6q18 -14 7 -33q-63 -92 -83 -147q-18 -51 7.5 -49.5t32.5 -16.5q11 -23 -26 -44.5t-55 3.5q-33 44 -3 122z" />
<glyph unicode="&#x2019;" horiz-adv-x="356" d="M201 764q62 92 82 147q19 51 -7 49.5t-33 16.5q-11 23 26 44.5t55 -3.5q34 -44 4 -122q-22 -61 -88 -158q-13 -20 -33 -7q-18 14 -6 33z" />
<glyph unicode="&#x201a;" horiz-adv-x="314" d="M98 -127q63 91 83 146q19 51 -7 50t-33 16q-11 24 26.5 45.5t53.5 -4.5q34 -44 5 -122q-23 -61 -88 -159q-14 -18 -33 -5q-18 13 -7 33z" />
<glyph unicode="&#x201c;" horiz-adv-x="521" d="M142 865q22 61 87 159q14 19 33 6q18 -14 7 -33q-63 -92 -83 -147q-18 -51 7.5 -49.5t32.5 -16.5q11 -23 -26 -44.5t-54 3.5q-34 44 -4 122zM293 865q23 61 88 159q13 19 33 6q17 -14 6 -33q-62 -92 -82 -147q-19 -51 7 -49.5t33 -16.5q11 -23 -26.5 -44.5t-54.5 3.5 q-33 44 -4 122z" />
<glyph unicode="&#x201d;" horiz-adv-x="490" d="M189 764q62 92 83 147q18 51 -7.5 49.5t-33.5 16.5q-10 23 27.5 44.5t54.5 -3.5q33 -44 3 -122q-22 -61 -87 -158q-13 -20 -33 -7q-17 14 -7 33zM341 764q62 92 83 147q17 51 -8.5 49.5t-32.5 16.5q-10 23 26.5 44.5t54.5 -3.5q34 -44 4 -122q-22 -61 -88 -158 q-13 -20 -33 -7q-18 14 -6 33z" />
<glyph unicode="&#x201e;" horiz-adv-x="431" d="M59 -127q62 91 83 146q17 51 -8.5 50t-32.5 16q-11 24 26.5 45.5t53.5 -4.5q34 -44 5 -122q-22 -61 -88 -159q-13 -18 -32 -5q-18 13 -7 33zM214 -127q62 91 82 146q19 51 -7 50t-33 16q-11 24 26 45.5t55 -4.5q33 -44 4 -122q-23 -61 -88 -159q-13 -18 -33 -5 q-18 13 -6 33z" />
<glyph unicode="&#x2022;" horiz-adv-x="337" d="M176 392q4 29 24.5 60t56.5 25q34 -5 45 -35.5t9 -58.5q-3 -34 -24 -68t-61 -29q-36 7 -46 40t-4 66z" />
<glyph unicode="&#x2026;" horiz-adv-x="620" d="M53 42q0 26 15 43.5t36 17.5q22 0 37.5 -17.5t15.5 -43.5t-15.5 -43t-37.5 -17t-36.5 17t-14.5 43zM260 42q0 26 15 43.5t36 17.5q22 0 37.5 -17.5t15.5 -43.5t-15.5 -43t-37.5 -17t-36.5 17t-14.5 43zM467 42q0 26 15 43.5t36 17.5q22 0 37 -17.5t15 -43.5t-15 -43 t-37 -17t-36.5 17t-14.5 43z" />
<glyph unicode="&#x202f;" horiz-adv-x="273" />
<glyph unicode="&#x2039;" horiz-adv-x="330" d="M51 243l197 254q14 18 33 5q15 -15 3 -31l-176 -228l176 -228q12 -17 -3 -32q-19 -13 -33 4z" />
<glyph unicode="&#x203a;" horiz-adv-x="330" d="M63 13l177 229l-177 227q-12 17 4 33q18 13 32 -4l197 -256l-197 -254q-14 -18 -32 -5q-15 15 -4 30z" />
<glyph unicode="&#x205f;" horiz-adv-x="341" />
<glyph unicode="&#x20ac;" horiz-adv-x="700" d="M18 583q0 24 23 23h14q5 55 15 107q19 99 62 172q82 140 238 140q94 0 164 -54q68 -53 106 -156q9 -23 -12 -30q-23 -8 -30 14q-36 91 -92 136q-56 44 -136 44q-130 0 -199 -117q-39 -67 -56 -161q-9 -46 -14 -95h373q23 -1 24 -24q0 -25 -25 -25l-375 2q-1 -29 -1 -57 q0 -34 1 -66h235q23 0 23 -24t-24 -24l-231 1q5 -47 14 -90q17 -92 56 -158q69 -119 199 -118q79 0 136 45q57 44 92 136q7 20 30 13q22 -9 12 -30q-40 -104 -106 -155q-70 -54 -164 -55q-156 0 -238 141q-43 71 -62 170q-9 49 -15 101h-12q-25 0 -24 25q-1 23 24 22h9 q-1 32 -1 66q0 29 1 57h-11q-24 0 -23 24z" />
<glyph unicode="&#x2122;" horiz-adv-x="815" d="M43 1005q0 24 23 23h266q22 0 21 -23q0 -23 -21 -23h-112v-448q0 -24 -21 -24q-23 0 -23 24v448h-110q-23 0 -23 23zM378 534v475q2 5 6 9.5t15 9.5q17 4 24 -17l-1 1q18 -55 35 -105t33.5 -99t33.5 -99t35 -105q34 102 68.5 203.5t67.5 204.5l-1 -1q6 23 30 16 q12 -7 15 -18l1 -4v-471q0 -24 -22 -24q-24 0 -24 24v334l-57.5 -172.5t-56.5 -170.5q-4 -10 -14 -13h1q-24 -10 -30 15l1 -1q-17 50 -30.5 90.5t-26.5 78.5t-27 78.5t-30 91.5v-331q0 -24 -24 -24q-23 0 -22 24z" />
<glyph unicode="&#x25fc;" horiz-adv-x="506" d="M0 0v507h507v-507h-507z" />
<glyph unicode="&#xfb01;" horiz-adv-x="429" d="M-52 593q0 22 22 21h70v215q0 90 42 144q42 52 119 52q52 0 89 -25q38 -26 55 -72q10 -23 -12 -31q-23 -9 -30 14q-14 34 -38 52q-26 16 -64 16q-55 0 -83 -36q-32 -39 -32 -114v-215h167q23 0 22 -21q0 -24 -22 -24h-167v-569q0 -23 -21 -23q-25 0 -25 23v569h-70 q-23 0 -22 24zM292 764q0 -26 15 -43.5t36 -17.5q22 0 37 17.5t15 43.5t-15 43.5t-37 17.5t-36.5 -17.5t-14.5 -43.5zM318 0v483q0 24 23 24q24 0 24 -24v-483q0 -23 -24 -23q-23 0 -23 23z" />
<glyph unicode="&#xfb02;" horiz-adv-x="409" d="M-52 593q0 22 22 21h70v215q0 90 42 144q42 52 119 52q52 0 89 -25q12 -8 22 -19v21q0 23 23 23t23 -23v-1002q0 -23 -23 -23t-23 23v897q-6 4 -9 14q-14 34 -38 52q-26 16 -64 16q-55 0 -83 -36q-32 -39 -32 -114v-215h167q23 0 22 -21q0 -24 -22 -24h-167v-569 q0 -23 -21 -23q-25 0 -25 23v569h-70q-23 0 -22 24z" />
<glyph unicode="&#xfb03;" horiz-adv-x="684" d="M-52 593q0 22 22 21h70v215q0 90 42 144q42 52 119 52q52 0 89 -25q23 -15 38 -39q4 6 9 12q42 52 119 52q52 0 89 -25q38 -26 55 -72q10 -23 -12 -31q-23 -9 -30 14q-14 34 -38 52q-26 16 -64 16q-55 0 -83 -36q-32 -39 -32 -114v-215h167q23 0 22 -21q0 -24 -22 -24 h-167v-569q0 -23 -22 -23q-25 0 -24 23v569h-209v-569q0 -23 -21 -23q-25 0 -25 23v569h-70q-23 0 -22 24zM86 614h209v215q0 43 9 78l-1 4q-14 34 -38 52q-26 16 -64 16q-55 0 -83 -36q-32 -39 -32 -114v-215zM547 764q0 -26 15 -43.5t36 -17.5q22 0 37 17.5t15 43.5 t-15 43.5t-37 17.5t-36.5 -17.5t-14.5 -43.5zM573 0v483q0 24 23 24q24 0 24 -24v-483q0 -23 -24 -23q-23 0 -23 23z" />
<glyph unicode="&#xfb04;" horiz-adv-x="664" d="M-52 593q0 22 22 21h70v215q0 90 42 144q42 52 119 52q52 0 89 -25q23 -15 38 -39q4 6 9 12q42 52 119 52q52 0 89 -25q12 -8 22 -19v21q0 23 23 23t23 -23v-1002q0 -23 -23 -23t-23 23v897q-6 4 -9 14q-14 34 -38 52q-26 16 -64 16q-55 0 -83 -36q-32 -39 -32 -114v-215 h167q23 0 22 -21q0 -24 -22 -24h-167v-569q0 -23 -22 -23q-25 0 -24 23v569h-209v-569q0 -23 -21 -23q-25 0 -25 23v569h-70q-23 0 -22 24zM86 614h209v215q0 43 9 78l-1 4q-14 34 -38 52q-26 16 -64 16q-55 0 -83 -36q-32 -39 -32 -114v-215z" />
</font>
</defs>
</svg>
